<svg xmlns="http://www.w3.org/2000/svg" aria-hidden="true" focusable="false" role="presentation" class="icon icon-international-delivery" viewBox="0 0 128 128"><path d="M64 0C28.653 0 0 28.654 0 64s28.653 64 64 64 64-28.654 64-64S99.347 0 64 0zm24.929 51.45c.36.413.897.602 1.623.558 1.775-.105 3.129-.66 3.914-1.605.325-.392.544-.842.65-1.334.367.874.754 1.37 1.452 1.37.235 0 .833 0 1.985-1.258.521 1.303 1.448 2.748 3.003 2.832 1.2.066 2.654.051 3.612.03v2.733c-2.66.257-5.582.33-6.233.005-1.916-.957-4.005.31-4.01.317-.946.465-3.235 1.298-4.259.896a.578.578 0 0 1-.366-.36c-.195-.501-.358-.999-.512-1.468-.54-1.64-1.196-3.637-3.034-3.637-.23 0-.48.031-.75.098-.501.126-1.479.227-2.513.333-.771.08-1.5.16-2.179.248.334-.207.681-.464 1.039-.782 2.32-2.061 4.753-3.443 5.88-3.37.229.016.319.087.377.155.338.394.244 1.039.073 1.906-.155.783-.33 1.672.248 2.333zm.375-18.13c.703.051 1.377-.053 1.955-.458.766-.536 1.18-1.455 1.265-2.81.173-2.74.556-4.314.841-5.115.219.81.44 2.051.564 3.253.053.52.466.936.982.898.001 0 .08.007.116.05.064.078.12.315.069.727-.225 1.805-1.748 5.14-3.328 5.14-.711 0-1.364-.632-1.995-1.243-.154-.15-.31-.3-.47-.442zM60.195 4.133c.387-.024.772-.049 1.16-.066a33.608 33.608 0 0 0-2.424 1.568c.523-.576.938-1.066 1.264-1.502zm63.584 54.923c.052.627.112 1.252.143 1.884a2.946 2.946 0 0 0-.377-.164c-.534-.19-1.238-.391-1.998-.608-1.022-.29-2.915-.83-3.844-1.314 1.187-.171 3.66-.102 6.076.202zm-10.268 10.666c5.367-.766 8.447-1.87 9.154-3.284.16-.318.526-.759.88-1.185.148-.177.294-.355.436-.534C123.594 97.47 96.843 124 64 124 31.786 124 5.43 98.479 4.065 66.594c.829.192 1.753.116 2.711.037 1.446-.12 3.081-.255 5.02.318 3.726 1.104 3.842 1.636 4.119 2.921.175.813.415 1.925 1.317 3.368.8 1.278 1.98 2.082 3.416 2.327.335.057.672.082 1.01.082 2.603 0 5.156-1.542 5.928-2.158.67-.536.633-1.11.55-1.403-.258-.927-1.277-1.06-2.819-1.26-.547-.072-1.183-.155-1.699-.286.455-.428.984-1 .984-1.808 0-1.086-.793-1.598-1.43-2.01-.523-.338-1.115-.721-1.605-1.501-.355-.57-.293-.7-.028-1.245.276-.57.694-1.43.398-2.76-.167-.75-.63-1.04-.892-1.147-.842-.343-1.664.19-2.613.809-.676.44-1.698 1.1-2.19.952-.276-.086-.492-.524-.597-.778-.31-.753-.128-1.164.035-1.408.95-1.42 4.69-2.009 6.481-2.009.373 0 1.186.677 1.778 1.17 1.207 1.005 2.708 2.255 4.333 1.645 1.274-.477 2.206-2.448 3.88-6.181 1.265-2.823 2.699-6.023 4.158-7.482 1.853-1.852 3.764-1.722 5.614-1.594.895.061 1.743.12 2.537-.056.67-.15 1.488-.416 1.872-1.164.457-.888.062-1.812-.533-3.213-.104-.242-.216-.505-.333-.79.434.055.927.032 1.464-.128.08-.024.126-.029.131-.034.144.12.362.683.493 1.023.477 1.236 1.26 3.312 3.956 3.128 1.035-.069 1.783-.426 2.222-1.06.809-1.169.322-2.784-.296-4.829-.395-1.31-.844-2.797-.998-4.333-.184-1.842-.75-3.024-1.732-3.611-1.305-.78-2.767-.174-3.642.187a.075.075 0 0 0-.008.004c-.15-.318-.334-.81-.479-1.2-.52-1.398-1.11-2.983-2.21-3.817a1.645 1.645 0 0 0-1.35-.32c-1.076.229-1.756 1.468-2.545 2.901-.41.745-1.263 2.296-1.673 2.378-1.952-.652-3.113 1.158-3.706 2.175-.3-.391-.52-.896-.656-2.528-.092-1.123 3.899-3.746 6.043-5.156 2.359-1.55 4.395-2.888 5.1-4.063.286-.477.82-1.365.22-2.074-.591-.697-1.412-.373-2.366 0-.688.27-1.699.665-2.437.598.12-.392.522-1.04.672-1.28.274-.442.733-1.18.073-1.772-.662-.595-1.375-.039-1.717.228-1.61 1.265-5.708 2.785-7.064 2.785-.243 0-.4-.006-.498-.015-.045-.246-.077-.71-.109-1.163-.021-.298-.045-.638-.077-1.024a2.92 2.92 0 0 0-1.13-2.11 3.71 3.71 0 0 0-.836-.482 60.022 60.022 0 0 1 6.123-3.644c.751.74 2.657 1.84 8.083 2.98 1.462.308 2.462.77 3.266 1.142.735.339 1.385.597 1.993.597.902 0 1.71-.566 2.562-2.27.527-1.054 1.977-2.667 3.484-4.262-.107.316-.14.622-.076.914.285 1.281.857 2.404 1.316 3.307.18.35.406.796.516 1.087a12.68 12.68 0 0 1-.402.258c-.83.518-1.966 1.227-2.17 2.514-.133.838.181 1.718.935 2.615 1.303 1.552.949 2.678.5 4.104-.235.748-.478 1.521-.478 2.378 0 .418-.063 1.099-.129 1.82-.316 3.435-.43 5.938.969 6.866.242.161.579.302 1.013.302.364 0 .796-.099 1.3-.368 1.625-.87 2.11-1.785 2.67-2.845.691-1.308 1.639-3.099 5.433-6.374 6.739-5.82 11.86-16.778 12.094-19.51a59.95 59.95 0 0 1 25.064 13.67c-.835 1.475-1.939 2.809-2.831 2.648-.328-.06-.34-.062-.382-.939-.059-1.279-.158-3.42-3.686-4.112-5.03-.99-12.176 1.29-13.847 5.71-1.153 3.049-1.266 6.03-.295 7.783.503.907 1.275 1.487 2.234 1.679.405.08.842.209 1.305.346-.284.168-.537.43-.757.781-2.021 3.235-4.429 5.757-5.152 5.768-1.258 0-2.262 1.114-2.687 2.982-.169.743-.273 1.62-.053 2.26l-.035.038c-.77-.394-1.988-.85-2.97-.469-.614.238-1.05.758-1.225 1.463-.438 1.752-.037 4.149.896 5.343.604.775 1.288.938 1.753.938.268 0 .536.03.81.059.1.01.203.021.31.03-.824.313-1.422.724-1.747 1.293l-.431.764c-.775 1.383-1.575 2.813-2.445 3.51l-.183.145c-1.197.95-3.007 2.385-3.769 5.687-.815 3.531.962 11.134 5.538 12.253 2.982.73 6.637.412 9.307.18.904-.079 1.685-.147 2.22-.152 1.068 0 1.596.549 1.875 3.628.146 1.608.817 2.613 1.409 3.5.503.752.9 1.348.991 2.266.099.982.018 1.656-.085 2.51-.13 1.088-.293 2.442-.156 4.882.055.994.03 2.076.005 3.222-.084 3.766-.18 8.035 2.998 9.397.473.202.875.41 1.234.595.916.472 1.657.77 2.383.77 1.583-.001 3.1-1.414 6.215-5.518 5.561-7.328 6.703-10.882 7.618-14.768.942-4 3.82-7.603 6.096-9.256 2.26-1.643 3.872-4.22 3.45-5.516a1.205 1.205 0 0 0-1.16-.85c-.107 0-.325.02-.628.056-1.593.188-6.44.761-7.822-2.25-.105-.226-.211-.453-.32-.68.99 1.37 2.017 2.246 3.152 2.087z"/><path d="M58.206 80.384c-2.606-.766-5.277-2.707-7.634-4.42-1.14-.827-2.216-1.609-3.18-2.178-2.707-1.597-7.053-2.355-8.074-2.516-.736-.464-1.43-.977-2.102-1.475-1.51-1.118-2.705-2-3.894-2-.563 0-1.358.204-1.94 1.183-1.123 1.889-2.316 3.76-4.536 5.885-.492.471-1.19.927-1.868 1.368-1.526.996-3.105 2.026-3.282 3.727-.117 1.13.431 2.286 1.677 3.532 1.375 1.373 2.996 2.244 4.563 3.086 3.064 1.646 5.71 3.068 6.439 7.87 1.357 8.962 7.126 17.556 9.544 20.834 1.767 2.399 3.655 3.72 5.313 3.72.703 0 1.34-.247 1.795-.694.449-.44.696-1.044.696-1.7 0-.483.046-.988.093-1.524.115-1.27.244-2.71-.109-4.651-.476-2.622-.453-3.872.089-4.777.094-.158.306-.22.733-.313.478-.105 1.132-.248 1.497-.871.253-.432.282-.952.086-1.59a12.382 12.382 0 0 0-.404-1.09c-.464-1.14-.696-1.71.207-2.764 1.711-1.992 4.481-6.502 4.997-9.854.128-.83.544-1.749.947-2.637.673-1.484 1.37-3.02.748-4.375-.381-.832-1.167-1.413-2.4-1.776zM53.038 15.608a1 1 0 0 0-1.321-.408c-.1.05-2.473 1.264-2.473 3.773 0 .502-.725 1.408-1.256 2.07-.93 1.163-2.339 2.921-.784 4.216.38.316.901.484 1.508.484 1.478 0 3.573-1.017 4.716-2.96.844-1.435 1.462-3.845-.39-7.175zM72.054 33.062c3.92-1.96 3.45-8.14 3.428-8.403a.999.999 0 0 0-1.236-.887c-.876.216-5.305 1.41-6.416 3.629-.648 1.298-.804 3.474.06 4.87.514.833 1.327 1.292 2.287 1.292.579 0 1.21-.168 1.877-.501z"/></svg>