<svg xmlns="http://www.w3.org/2000/svg" aria-hidden="true" focusable="false" role="presentation" class="icon icon-gift-wrapping" viewBox="0 0 32 32"><path d="M28.5 31h-25a.5.5 0 0 1-.5-.5v-17a.5.5 0 0 1 .5-.5h25a.5.5 0 0 1 .5.5v17a.5.5 0 0 1-.5.5zM4 30h24V14H4z"/><path d="M18.5 14h-5a.5.5 0 0 1-.5-.5v-5a.5.5 0 0 1 .5-.5h5a.5.5 0 0 1 .5.5v5a.5.5 0 0 1-.5.5zM14 13h4V9h-4z"/><path d="M17.5 31h-3a.5.5 0 0 1-.5-.5v-17a.5.5 0 0 1 .5-.5h3a.5.5 0 0 1 .5.5v17a.5.5 0 0 1-.5.5zM15 30h2V14h-2z"/><path d="M30.5 14h-29a.5.5 0 0 1-.5-.5v-5a.5.5 0 0 1 .5-.5h29a.5.5 0 0 1 .5.5v5a.5.5 0 0 1-.5.5zM2 13h28V9H2z"/><path d="M16 9h-.31A5 5 0 0 1 11 4a4.92 4.92 0 0 1 .84-2.77.48.48 0 0 1 .44-.23 5 5 0 0 1 4.17 2.7.5.5 0 0 1 0 .46 4 4 0 0 0 0 3.66 3.31 3.31 0 0 0 .23.39.5.5 0 0 1-.36.77zm-3.49-7A4 4 0 0 0 12 4a4 4 0 0 0 3.4 4 5 5 0 0 1 0-4 4 4 0 0 0-2.89-2z"/><path d="M15.75 9A5 5 0 0 1 11 4a4.92 4.92 0 0 1 .84-2.77.48.48 0 0 1 .44-.23 5 5 0 0 1 4.17 2.7.5.5 0 0 1 0 .46 4 4 0 0 0 0 3.66.5.5 0 0 1 0 .44 4.26 4.26 0 0 1-.28.49.5.5 0 0 1-.42.25zm-3.24-7A4 4 0 0 0 12 4a4 4 0 0 0 3.4 4 5 5 0 0 1 0-4 4 4 0 0 0-2.89-2z"/><path d="M16.25 9a.5.5 0 0 1-.42-.23 4.26 4.26 0 0 1-.28-.49 5 5 0 0 1 0-4.56A5 5 0 0 1 19.72 1a.49.49 0 0 1 .44.22A4.92 4.92 0 0 1 21 4a5 5 0 0 1-4.72 5zm3.24-7a4 4 0 0 0-3 2.13 4 4 0 0 0 0 3.66l.07.13A4 4 0 0 0 20 4a4 4 0 0 0-.51-2z"/></svg>