<?xml version="1.0" encoding="utf-8"?>
<!-- Generator: Adobe Illustrator 23.0.4, SVG Export Plug-In . SVG Version: 6.00 Build 0)  -->
<svg version="1.1" id="Layer_1" xmlns="http://www.w3.org/2000/svg" xmlns:xlink="http://www.w3.org/1999/xlink" x="0px" y="0px"
	 viewBox="0 0 5.3 10" style="enable-background:new 0 0 5.3 10;" xml:space="preserve">
<style type="text/css">
	.st0{fill:#000;}
</style>
<path id="chevron-thin-down" class="st0" d="M5.2,9.3c0.2,0.2,0.2,0.4,0,0.6c0,0,0,0,0,0C5.1,10,4.8,10,4.7,9.9L0.1,5.3
	C0,5.1,0,4.9,0.1,4.7c0,0,0,0,0,0l4.6-4.6C4.8,0,5.1,0,5.2,0.1c0.2,0.2,0.2,0.4,0,0.6c0,0,0,0,0,0L1.1,5L5.2,9.3z"/>
</svg>
