<?xml version="1.0" encoding="utf-8"?>
<!-- Generator: Adobe Illustrator 17.1.0, SVG Export Plug-In . SVG Version: 6.00 Build 0)  -->
<!DOCTYPE svg PUBLIC "-//W3C//DTD SVG 1.1//EN" "http://www.w3.org/Graphics/SVG/1.1/DTD/svg11.dtd">
<svg version="1.1" id="Layer_1" xmlns="http://www.w3.org/2000/svg" xmlns:xlink="http://www.w3.org/1999/xlink" x="0px" y="0px"
	 viewBox="0 0 170.1 113.4" enable-background="new 0 0 170.1 113.4" xml:space="preserve">
<g>
	<path fill-rule="evenodd" clip-rule="evenodd" fill="#214097" d="M21,0h50v33.3L21,0L21,0z M99.1,0h50l-50,33.3V0L99.1,0z
		 M170.1,14V38h-35.9L170.1,14L170.1,14z M170.1,75.4v23.9l-35.9-23.9H170.1L170.1,75.4z M149,113.4h-50V80.1L149,113.4L149,113.4z
		 M71,113.4H21l50-33.3V113.4L71,113.4z M0,99.4V75.4h35.9L0,99.4L0,99.4z M0,38V14L35.9,38H0L0,38z"/>
	<polygon fill="#F4F4F4" points="170.1,99.4 134.2,75.4 170.1,75.4 170.1,38 134.2,38 170.1,14 170.1,0 149,0 99.1,33.3 99.1,0 
		85,0 71,0 71,33.3 21,0 0,0 0,14 35.9,38 0,38 0,75.4 35.9,75.4 0,99.4 0,113.4 21,113.4 71,80.1 71,113.4 85,113.4 99.1,113.4 
		99.1,80.1 149,113.4 170.1,113.4 170.1,99.4 	"/>
	<path fill-rule="evenodd" clip-rule="evenodd" fill="#EE2724" d="M93.8,0v45h76.3v23.4H93.8v45H85h-8.8v-45H0V45h76.3V0H85H93.8
		L93.8,0z M170.1,108.1L121,75.4h-15.8l56.9,38h7.9V108.1L170.1,108.1z M121,38l49.1-32.7V0h-7.9l-56.9,38H121L121,38z M64.8,38
		L7.9,0H0v5.3L49.1,38H64.8L64.8,38z M49.1,75.4L0,108.1v5.3h7.9l56.9-38H49.1L49.1,75.4z"/>
</g>
</svg>
