<svg xmlns="http://www.w3.org/2000/svg" aria-hidden="true" focusable="false" role="presentation" class="icon icon-instagram" viewBox="0 0 19.2 19.2"><path d="M9.6 1.5h3.9c.6 0 1.2.2 1.8.4.8.4 1.6 1 1.8 1.8.2.6.4 1.2.4 1.8v8c0 .6-.2 1.2-.4 1.8-.4.8-1 1.6-1.8 1.8-.6.2-1.2.4-1.8.4H5.7c-.6 0-1.2-.2-1.8-.4-.8-.4-1.6-1-1.8-1.8-.2-.6-.4-1.2-.4-1.8v-4-4c0-.6.2-1.2.4-1.8.4-.8 1-1.6 1.8-1.8.6-.2 1.2-.4 1.8-.4h3.9m0-1.6H5.7c-.8 0-1.6.2-2.4.4C2 .9 1 1.9.4 3 .2 3.8 0 4.6 0 5.4v8c0 .8.2 1.6.4 2.4.6 1.4 1.6 2.4 2.9 3 .8.2 1.6.4 2.4.4h7.8c.8 0 1.6-.2 2.4-.4 1.4-.6 2.4-1.6 2.9-3 .2-.8.4-1.6.4-2.4v-4-4c0-.8-.2-1.6-.4-2.4-.6-1.4-1.6-2.4-2.9-3-.8-.2-1.6-.4-2.4-.4-1 .3-1.4.3-3.9.3z"/><path d="M9.6 4.4c-2.7 0-5.1 2.4-5.1 5.2s2.2 5.2 5.1 5.2 5.1-2.2 5.1-5.2c0-2.8-2.4-5.2-5.1-5.2zm0 8.4c-1.8 0-3.3-1.4-3.3-3.4C6.3 7.6 7.6 6 9.6 6c1.8 0 3.3 1.4 3.3 3.4-.2 2-1.5 3.4-3.3 3.4z"/><ellipse cx="14.7" cy="4.2" rx="1.2" ry="1.2"/></svg>