<?xml version="1.0" encoding="utf-8"?>
<!-- Generator: Adobe Illustrator 21.1.0, SVG Export Plug-In . SVG Version: 6.00 Build 0)  -->
<svg version="1.1" id="Layer_1" xmlns="http://www.w3.org/2000/svg" xmlns:xlink="http://www.w3.org/1999/xlink" x="0px" y="0px"
	 viewBox="0 0 170.1 113.4" style="enable-background:new 0 0 170.1 113.4;" xml:space="preserve">
<style type="text/css">
	.st0{fill:#999999;}
</style>
<g>
	<path class="st0" d="M85,1.6c-30.3,0-55,24.7-55,55s24.7,55,55,55c30.3,0,55-24.7,55-55S115.3,1.6,85,1.6z M79.2,36
		c-0.1,0.2,0.1,0.3,0.2,0.3c0.1,0.1,0.2,0.1,0.3,0.3c0.1,0.2,0.4,0.4,0.6,0.6c0.2,0.1,0.4,0.4,0.5,0.5c-0.2,0-0.5,0-1.3,0.1
		c-0.1,0-0.1,0-0.2,0c0,0-0.1-0.1-0.2-0.1c-0.2,0-0.2-0.1-0.3-0.2c-0.1-0.1-0.2-0.2-0.3-0.2c-0.1,0-0.1-0.1-0.1-0.1
		c-0.1-0.1-0.3-0.2-0.6-0.2c-0.2,0-0.2,0-0.2,0c-0.1,0-0.1,0-0.1,0c0,0-0.1,0-0.1,0c-0.2,0-0.3,0-0.3,0c0,0-0.1,0-0.1,0l-0.1,0h0
		c0.5-0.2,1-0.3,1.1-0.3c0.2,0,0.4-0.2,0.9-0.5C78.9,36.2,79,36.1,79.2,36L79.2,36z M87.6,24.1L87.6,24.1C87.3,24,87.1,24,86.8,24
		c-0.2,0-0.3,0-0.5-0.1c-0.1,0-0.2,0-0.3,0c-0.3,0-0.4,0.2-0.4,0.3c0,0.1,0,0.1,0,0.1c-0.2,0.3-0.5,0.7-0.6,1.9c0,0.1,0,0.3,0,0.4
		c-0.1,0-0.1,0.2-0.2,0.2c-0.2,0.5-0.2,0.6,0,1c0,0.1,0,0.1,0,0.2c0,0.1,0.1,0.2,0.1,0.2c0,0,0.1,0,0.2,0.1c0.2,0.1,0.2,0.1,0.3,0.4
		c0,0.1,0.1,0.2,0.1,0.4c0.1,0.3,0.1,0.4,0,0.5c0,0.1-0.1,0.2,0,0.5c0,0.2-0.1,0.3-0.6,0.5c-0.1,0-0.2,0.1-0.3,0.1
		c-0.5,0.2-0.5,0.4-0.6,0.9c0,0.3,0,0.4,0.1,0.5c0,0.1,0.1,0.2,0.1,0.5c0,0.2,0,0.4-0.1,0.4c-0.1,0-0.2,0.1-0.3,0.3
		c-0.2,0.2-0.2,0.2-0.3,0.2c0,0-0.1,0-0.2,0c-0.1,0-0.1,0-0.2,0c-0.1,0-0.4-0.6-0.5-1.2c0-0.3,0-0.4,0-0.5c0-0.1,0.1-0.3,0-0.6
		c0-0.5-0.2-0.6-0.5-0.8c-0.1,0-0.1-0.1-0.2-0.1c-0.3-0.2-0.5-0.2-0.7-0.3c-0.1,0-0.2,0-0.3-0.1c-0.1,0-0.2-0.1-0.3-0.1
		c-0.2,0-0.3-0.1-0.7-0.2C80,29.5,80,29.4,80,29.4c0,0,0,0,0,0c0-0.1,0-0.3-0.1-0.5c-0.2-0.3-0.5-0.4-0.7-0.5
		c-0.1,0-0.2-0.1-0.3-0.1l-0.1,0c-0.3-0.2-0.6-0.3-0.9-0.4c-0.1,0-0.2-0.2-0.2-0.6c0-0.4-0.3-0.5-0.5-0.7c-0.1,0-0.1-0.1-0.2-0.1
		c-0.1-0.1-0.1-0.1-0.2-0.1c0,0,0,0,0,0c0,0,0-0.1,0-0.2c0-0.2,0.1-0.4,0.2-0.6c0.1-0.1,0.1-0.3,0.2-0.5c0.1-0.2,0.1-0.2,0.3-0.4
		c0.2-0.1,0.4-0.2,0.7-0.5c0.3-0.2,0.4-0.3,0.5-0.3c0.1,0,0.2,0.1,0.3,0.1l0,0c0.3-0.1,0.3-0.1,0.4-0.4c0-0.1,0-0.1,0.1-0.2
		c0.1-0.2,0.2-0.2,0.4-0.3c0.2,0,0.3-0.1,0.6-0.2l0.5-0.3c0.2-0.1,0.3-0.2,0.3-0.3c0-0.1-0.1-0.2-0.1-0.2c-0.1,0-0.1,0-0.1-0.2
		c0-0.1,0-0.1,0-0.2c0.2,0,0.5,0,0.6-0.2c0-0.1,0-0.1,0-0.2l0.1-0.2c0,0,0,0,0,0c0.1,0.1,0.1,0.1,0.3,0.1c0.1,0,0.4,0,0.8-0.2
		l0.2-0.1c0.3-0.2,0.5-0.3,0.7-0.4c0.2-0.2,0.3-0.3,0.4-0.7c0.1-0.3,0-0.4-0.1-0.6c0-0.1-0.1-0.1-0.1-0.2c0-0.1,0-0.2,0-0.2
		c0-0.1,0.1-0.2,0-0.4c0-0.2,0-0.4,0-0.4c0,0,0-0.2,0.1-0.4c0,0,0-0.1,0,0c0.1,0,0.2,0,0.4,0c0.1,0,0.2-0.1,0.2-0.1
		c0.1,0,0.2,0,0.3-0.2c0.1,0,0.3,0.1,0.4,0.2c0.1,0,0.1,0.1,0.2,0.1c0.1,0,0.2,0.3,0.3,0.6l0.1,0.2c0.1,0.1,0.1,0.2,0.1,0.3
		c0,0.1,0.1,0.2,0.2,0.2c0,0,0,0,0,0c0,0,0.2,0.1,0.3,0.3c0.2,0.2,0.6,0.6,0.6,0.8c0,0.2,0,0.2-0.1,0.3c0,0-0.1,0.1-0.1,0.1
		c-0.3,0.2-0.4,0.5-0.4,0.8c0,0.1,0,0.2,0,0.4c0,0.1,0,0.2,0,0.2c-0.2,0-0.2,0-0.9,0c-0.6,0-0.7,0.2-0.7,0.6c0,0.1,0,0.2,0,0.4
		c0,0.3,0,0.4,0.1,0.6c0.1,0.1,0.3,0.2,0.7,0c0.2-0.1,0.4-0.3,0.6-0.4c0.2,0.1,0.4,0.3,0.7,0.5l0.2,0.1c0.4,0.3,0.6,0.5,0.8,0.8
		C88,24.2,87.8,24.1,87.6,24.1L87.6,24.1z M90.9,108.6c0,0,0.1-0.1,0.1-0.2l0-0.1c0.1-0.2,0.3-0.3,0.3-0.3c0,0,0.5-0.5,0.7-0.8
		c0.1-0.1,0.1-0.2,0.2-0.2c0.1-0.1,0.3-0.3,0.3-0.5c0.1-0.2,0.1-0.3,0-0.4c0-0.1,0.2-0.4,0.2-0.5c0,0,0.1,0,0.1,0
		c0.1,0,0.2,0,0.3-0.1c0.3-0.1,0.5-0.3,0.6-0.5c0.1-0.2,0.2-0.6,0.2-0.9c0-0.1,0.2-0.2,0.4-0.3l0.1,0c0.1,0,0.2,0,0.3,0.1
		c0.2,0.1,0.4,0.2,0.8,0.1c0.6,0,0.8-0.9,1-1.4c0-0.1,0-0.2,0-0.2c0.1,0,0.4-0.1,0.6-0.1c0.1,0,0.2,0,0.3,0c0.2,0,0.9-0.2,1.2-0.2
		c0.2,0,0.4-0.1,0.5-0.2c0.1-0.1,0.2-0.2,0.4-0.2c0.3-0.1,0.4-0.2,0.6-0.4c0.1-0.1,0.2-0.2,0.4-0.3c0.1-0.1,0.2-0.2,0.2-0.3
		c0-0.3-0.3-0.6-0.6-0.9c0.2,0.1,0.3,0.2,0.4,0.2c0.1,0,0.1,0,0.2,0c0,0,0.1,0,0.2,0c0.4,0,0.5,0,0.7-0.1c0.1,0,0.2,0,0.3-0.1
		c0.2,0,0.3-0.1,0.4-0.1c0.2,0,0.3,0,0.6-0.2c0.2-0.1,0.2-0.1,0.3-0.2c0,0,0.1-0.1,0.3-0.3c0.4-0.3,0.4-0.3,0.5-0.4
		c0-0.1,0.1-0.1,0.3-0.3c0.4-0.4,0.4-0.4,0.7-0.8l0.3-0.4c0.4-0.5,0.4-0.5,1.5-1.2l0.5-0.3c0.7-0.4,0.9-0.6,0.9-0.8
		c0-0.2-0.2-0.3-0.3-0.4c-0.2-0.1-0.3-0.2-0.3-0.3c0-0.3,0-0.4,0.1-0.5c0.1-0.1,0.2-0.2,0.3-0.4c0.2-0.3,2.4-1.2,3.7-1.7
		c0.7-0.3,1.4-0.5,1.7-0.7c0.6-0.3,0.6-0.3,0.6-0.4c0-0.1-0.1-0.2-0.1-0.2c0,0,0-0.1,0.2-0.4c0.4-0.5,0.6-0.8,0.8-1
		c0.2-0.2,0.3-0.3,0.3-0.5c0-0.1,0.1-0.2,0.2-0.4c0.2-0.3,0.4-0.6,0.5-0.9c0-0.2,0.1-0.3,0.1-0.3c0.1-0.1,0.1-0.2,0-0.4
		c-0.1-1-0.2-2.3,0.1-2.9c0.2-0.5,0.5-0.7,0.8-1.1c0.3-0.3,0.5-0.5,0.8-0.9c0.4-0.5,0.5-0.7,0.6-0.8c0.1-0.1,0.2-0.2,0.3-0.3
		c0.4-0.4,0.7-1,0.8-1.6c0.1-0.6,0-1.1-0.4-1.4c-0.2-0.2-0.4-0.2-0.5-0.2c-0.1,0-0.3,0-0.5-0.2c-0.5-0.5-0.8-0.5-1.8-0.7
		c-0.6-0.1-0.8,0-1,0.1c-0.2,0.1-0.4,0.1-0.9,0.1c-0.7,0-0.8,0-0.9,0.1c-0.1,0-0.1,0-0.4,0c0,0-0.1,0-0.1,0c0-0.1,0-0.3-0.1-0.4
		c-0.2-0.3-0.5-0.3-0.7-0.3c-0.1,0-0.3,0-0.4,0c-0.2,0-0.5,0-0.7,0c-0.4-0.1-0.5-0.1-0.7-0.2c0,0-0.1,0-0.2,0l-0.1,0
		c-0.3,0-0.7-0.1-1.3-0.4c-0.2-0.1-0.5-0.1-0.8-0.1l0.2-0.2c0,0,0.1-0.1,0.1-0.1c0,0,0-0.6-0.4-1.4c-0.5-2.2-2.9-2.5-4-2.5
		c-0.1,0-0.2,0-0.2,0l-0.2,0c-0.2,0-0.4,0-0.9-0.2c-0.3-0.1-0.6-0.1-0.8-0.1c0-0.2,0-0.3-0.1-0.4c0,0-0.1-0.1-0.1-0.1
		c-0.2-0.3-0.5-0.4-0.9-0.5c-0.1,0-0.2-0.1-0.3-0.1c-0.3-0.1-0.4-0.1-0.4-0.1c-0.1,0-0.2,0-0.2,0.1c0,0-0.1,0-0.1,0
		c-0.1,0-0.3,0.1-0.7-0.2c0,0,0,0,0,0c0,0,0.1-0.2,0.2-0.2c0,0,0.1-0.1,0-0.2c0-0.1-0.1-0.1-0.2-0.1h-0.2c-0.1,0-0.2-0.1-0.3-0.2
		c0,0-0.1-0.1-0.1-0.1c-0.3-0.3-0.6-0.5-1-0.5c-0.2,0-0.3,0-0.4,0.1c0,0-0.1,0.1-0.2,0.1c-0.2,0.1-1,0.1-1.5,0.1h-1.3
		c-0.2,0-0.7-0.1-0.8-0.1c-0.1,0-0.3-0.2-0.7-0.3c-0.2-0.1-0.2-0.1-0.3-0.1c-0.1-0.1-0.2-0.1-0.4-0.2c-0.4-0.1-0.5,0.2-0.6,0.4
		c0,0.1-0.1,0.2-0.1,0.2c0,0,0,0,0,0c-0.1,0-0.1,0-0.2,0.1c-0.2,0.1-0.4,0.3-0.2,0.8c0,0,0,0.2,0,0.3c-0.1,0-0.4,0-0.4,0
		c-0.1-0.1,0-0.5,0.1-0.7c0.1-0.2,0.1-0.4,0.1-0.6v-0.1c0-0.1,0-0.1,0-0.2c0-0.1,0.1-0.2,0.2-0.3c0.1-0.1,0.2-0.2,0.2-0.4
		c0-0.1-0.1-0.1-0.2-0.1c-0.1,0-0.3,0.1-0.6,0.3c-0.1,0.1-0.2,0.1-0.3,0.2c-0.1,0-0.3,0.1-1.4,0.9c-0.2,0.2-0.4,0.2-0.4,0.3
		c0,0-0.1,0-0.3,0c-0.4,0.1-0.4,0.1-0.7,0.6c-0.1,0.2-0.2,0.2-0.2,0.3c0,0,0,0-0.1,0c-0.1,0.1-0.3,0.4-0.6,1L85.7,70l-0.3-0.3
		c-0.1-0.1-0.1-0.3-0.1-0.6c0-0.2,0-0.5-0.1-0.6c-0.1-0.1-0.2-0.1-0.3-0.1c-0.3,0-0.8,0.2-1.3,0.4c-0.3,0.1-0.5,0.2-0.7,0.3
		c-0.3,0.1-0.6,0-0.9,0c-0.2,0-0.8-0.4-1-0.5c-0.1-0.1-0.4-0.3-0.4-0.4c-0.1-0.1-0.3-0.4-0.4-0.5c0-0.1-0.1-0.1-0.1-0.2
		c0-0.1,0-0.1-0.1-0.2c0-0.1,0-0.5,0-0.8c0-0.2,0-0.4,0-0.5c0-0.1,0.1-0.2,0.1-0.3c0.1-0.1,0.2-0.3,0.1-0.4
		c-0.1-0.2-1.2-1.8-1.6-1.9c-0.2-0.1-1.1-0.1-2.7-0.1c-0.1-0.1,0.1-0.6,0.2-0.8c0-0.1,0.1-0.2,0.1-0.3c0-0.2,0.2-0.6,0.2-0.8
		c0-0.1,0.1-0.3,0.2-0.4c0-0.1,0.1-0.2,0.1-0.3c0.1-0.2,0.1-0.2,0.1-0.3c0-0.1,0-0.1,0.1-0.3c0-0.1,0.1-0.2,0.1-0.3
		c0.1-0.1,0.1-0.2,0.1-0.4l0-0.1c0-0.2,0.1-0.3-0.1-0.6c-0.1-0.2-0.2-0.3-0.3-0.3c-0.1,0-0.3,0.1-0.5,0.2c-0.2,0.1-0.4,0.2-0.7,0.3
		c-0.6,0.2-0.6,0.3-0.7,0.4c0,0,0,0-0.1,0.1c-0.3,0.1-0.3,0.3-0.5,0.5c-0.1,0.2-0.2,0.4-0.3,0.7c0,0,0,0,0,0.1c-0.1,0-0.1,0-0.1,0.1
		c-0.2,0.1-0.4,0.2-0.9,0.2c-0.5,0-0.9,0-1.2,0c-0.3,0-0.4-0.1-0.6-0.2c-0.1,0-0.2,0-0.3-0.1c-0.3-0.1-0.8-0.2-1.1-0.4
		c0,0-0.1,0-0.1-0.1c0-0.1,0-0.2,0-0.3c-0.2-0.4-0.3-0.6-0.7-1c-0.5-0.5-0.5-0.7-0.5-0.8v-1.3c0-0.1,0-0.3,0-0.4c0-0.2,0-0.5,0-0.7
		c0-0.2,0-0.2,0.1-0.3c0.1,0,0.1-0.1,0.2-0.2c0-0.1,0-0.1,0.1-0.1c0.1,0,0.3-0.1,0.5-0.3c0.2-0.1,0.3-0.3,0.3-0.4
		c0-0.2-0.2-0.4-0.3-0.5c0,0,0,0-0.1-0.1c0,0,0-0.1,0-0.2c0,0,0-0.1,0-0.2c0,0,0,0,0,0c0,0,0.1-0.1,0.2-0.2c0.2-0.2,1.4-0.8,2.1-1
		c0.3-0.1,0.4-0.2,0.5-0.2c0,0,0.1,0,0.2,0c0.2,0,0.4,0,0.7,0.2c0.2,0.1,0.4,0.2,0.7,0.4c0.4,0.2,0.5,0.2,0.6,0.2
		c0.1,0,0.2-0.1,0.3-0.2c0.2,0,0.4,0,0.6,0c0.1,0,0.2,0,0.3,0c0.5,0,0.6-0.3,0.6-0.4c0.1-0.2-0.1-0.3-0.1-0.4c0.1,0,0.2,0,0.3,0
		c0.1,0,0.2,0,0.3,0h1.1c0.4,0,0.6,0,0.8,0.2c0.2,0.2,0.4,0.4,0.9,0.6c0.4,0.2,0.5,0.1,0.6,0.1c0,0,0,0,0.1,0l0.6,0c0,0,0,0.2,0,0.2
		c0,0.1,0,0.2,0,0.3c0,0.3,0.1,0.6,0.2,0.6v0.5c0,0.4,0.1,0.5,0.3,0.6c0,0,0.1,0.1,0.2,0.2c0.4,0.6,0.8,1.1,1.2,1
		c0.3-0.1,0.5-0.1,0.5-0.4c0,0,0-0.1,0-0.1c0.2-0.3,0.2-1,0.2-1c0,0,0-0.1,0-0.1c-0.1-0.1-0.3-0.4-0.4-0.5c-0.1-0.1-0.2-0.7-0.3-0.9
		l0-0.2c0-0.3-0.1-0.5-0.2-0.7c0-0.1,0-0.3,0-0.5c0-0.2,0-0.4,0-0.7c0-0.2,0-0.3,0.1-0.4c0-0.1,0.1-0.1,0.1-0.2
		c0-0.1,0.2-0.2,0.2-0.3c0.1-0.1,0.2-0.1,0.2-0.2c0,0,0.1-0.1,0.2-0.2c0.1-0.1,0.3-0.3,0.4-0.5c0.1-0.1,0.2-0.2,0.4-0.3
		c0.1-0.1,0.2-0.1,0.3-0.2c0.2-0.1,0.3-0.2,0.4-0.3c0.1-0.1,0.2-0.2,0.4-0.3c0.2-0.1,0.2-0.1,0.2-0.2c0,0,0-0.1,0.2-0.3
		c0.3-0.4,0.3-0.5,0.1-0.7c-0.1-0.1-0.1-0.1-0.1-0.1c0-0.4,0.2-1.3,0.3-1.5c0.1,0,0.1,0,0.1,0c0,0,0.1,0,0.1,0c0,0,0.1,0,0.3,0
		c0.1,0,0.2,0,0.2,0c0,0,0.1,0,0.2-0.1c0.1-0.1,0-0.2,0-0.2c0-0.1-0.1-0.1,0-0.3c0.1-0.2,0.2-0.4,0.3-0.4c0.1-0.1,0.2-0.2,0.2-0.3
		c0.1-0.2,0.2-0.4,0.3-0.8c0.1-0.4,0.1-0.4,0.4-0.7c0-0.1,0.1-0.1,0.2-0.1c0.3,0,0.6,0,1.2-0.4c0.6-0.4,0.6-0.4,0.6-0.6
		c0,0,0-0.1-0.1-0.1c0-0.1,0-0.2,0-0.3c0,0,0-0.1,0-0.1c0-0.1,0-0.2,0.1-0.4c0-0.1,0.1-0.2,0.1-0.3c0,0,0.2-0.2,0.3-0.3
		c0.1,0,0.1-0.1,0.2-0.1c0.1-0.1,0.2-0.1,0.3-0.2c0.1,0,0.2-0.1,0.3-0.1c0.3-0.1,0.5-0.3,0.6-0.4c0,0,0.1-0.1,0.1-0.1
		c0.1,0,0.1-0.1,0.2-0.2c0.1-0.1,0.3-0.3,0.7-0.6C93.1,38.9,93,39,93,39c0,0-0.1,0.1-0.2,0.2c-0.3,0.3-0.6,0.8-0.5,1.3
		c0,0.2,0.1,0.4,0.3,0.4c0.1,0,0.2,0,0.2-0.1c0.1-0.1,0.2-0.1,0.3-0.1c0.5-0.1,1.3-0.8,1.4-1.1c0-0.1,0.3-0.3,0.4-0.4
		c0.6-0.5,0.8-0.7,0.7-0.9c0-0.1,0-0.3,0-0.3c0-0.1,0-0.1-0.1-0.2c0,0-0.4-0.1-0.9-0.4c-0.3-0.2-0.3-0.2-0.4-0.1c0,0-0.1,0-0.4-0.1
		c0,0-0.1,0-0.1,0c0-0.1-0.1-0.2-0.1-0.3c-0.2-0.2-0.2-0.2-0.3-0.2c0,0-0.1,0-0.1,0.1c0,0,0,0,0,0c0-0.1,0-0.1,0-0.2
		c0,0,0,0,0.1-0.1c0.2-0.1,0.4-0.2,0.6-0.6c0.2-0.4,0.3-0.6,0.1-0.7c0,0-0.1-0.1-0.1-0.1c-0.1-0.1-0.2-0.2-0.3-0.2
		c-0.1,0-0.1,0-0.2,0c-0.1,0-0.2,0-0.3,0c-0.4,0-0.5,0-1,0.2l-0.3,0.1c-0.4,0.1-0.4,0.1-0.4,0.3c0,0.1,0,0.1,0.1,0.2c0,0,0,0,0,0.1
		c-0.2,0.3-0.2,0.3-0.3,0.4c0,0-0.1,0-0.1,0.1c-0.1,0.1-0.3,0.2-0.8,0.3c0-0.1,0-0.1,0.1-0.1c0,0,0.1-0.1,0.3-0.4
		c0.2-0.3,0.3-0.4,0.4-0.4c0.1,0,0.1-0.1,0.2-0.2c0.1-0.2,0.3-0.2,0.5-0.3c0.1-0.1,0.3-0.1,0.4-0.2c0.2-0.1,0.3-0.1,0.5-0.1
		c0.1,0,0.2,0,0.4,0c0.2,0,0.4,0,0.6,0c0.1,0,0.3,0,0.4,0c0.3,0,0.7,0,1.1,0c0.7,0,0.8-0.1,1-0.3c0,0,0-0.1,0.1-0.1
		c0.2-0.3,0.5-0.8,0.6-1.1c0-0.1,0.1-0.1,0.2-0.2c0.1,0,0.1-0.1,0.2-0.2c0,0,0.1-0.1,0.1-0.1c0.2-0.3,0.5-0.5,0.4-0.8
		c0-0.3-0.1-0.6-0.4-0.7c-0.1-0.1-0.3-0.1-0.4-0.2c-0.1,0-0.3-0.1-0.5-0.2l-0.1,0c-0.1,0-0.1,0-0.1,0c0,0,0-0.1,0-0.1
		c0-0.1,0-0.1,0-0.2c0-0.3,0-0.4-0.2-0.4c-0.1,0-0.2,0.1-0.2,0.2c-0.1,0-0.2-0.1-0.4-0.2c-0.2-0.1-0.5-0.2-0.8-0.3
		c-0.3-0.1-0.3-0.1-0.5-0.1h-0.1c-0.1,0-0.1,0-0.3,0c-0.2-0.1-0.3-0.3-0.4-0.7c-0.1-0.2-0.1-0.4-0.2-0.5c-0.1-0.1-0.2-0.4-0.3-0.6
		c-0.1-0.3-0.2-0.5-0.4-0.8c-0.1-0.1-0.2-0.3-0.2-0.4c-0.2-0.3-0.3-0.5-0.5-0.7c-0.1-0.1-0.2-0.2-0.2-0.2c-0.1,0-0.2,0-0.2,0.2
		c0,0.1,0,0.2-0.1,0.4c-0.2,0.2-0.2,0.3-0.1,0.4c0,0,0,0,0,0c-0.1,0.1-0.2,0.2-0.4,0.3c-0.1-0.1-0.4-0.2-0.6-0.3
		c-0.3-0.1-0.6-0.3-0.9-0.5c-0.1-0.1-0.1-0.2-0.1-0.3c0-0.1,0.1-0.2,0-0.5c-0.1-0.3-0.1-0.4-0.3-0.4c0,0,0,0-0.1,0
		c0.2,0,0.5,0,0.9-0.2c0.2-0.1,0.3-0.1,0.4-0.2c0.1,0,0.2,0.1,0.4,0c0.2,0,0.4-0.1,0.4-0.3c0.1-0.2-0.1-0.3-0.2-0.5
		c0,0-0.1-0.1-0.1-0.1c-0.2-0.2-0.4-0.3-0.6-0.4c0,0,0,0-0.1,0c0.4,0,0.7,0,1.1-0.2c0.2-0.1,0.4-0.2,0.4-0.4c0-0.2-0.1-0.4-0.2-0.4
		c0,0,0,0-0.1,0c0,0-0.7-0.2-1.3-0.8c-0.4-0.3-0.4-0.4-0.4-0.4c0,0,0-0.1,0-0.1c0.1,0,0.2,0,0.4,0c0.1,0,0.2,0,0.2,0
		c0.1,0,0.2,0.2,0.3,0.3c0.1,0.1,0.2,0.2,0.4,0.3c0.2,0.1,0.2,0.2,0.3,0.2c0,0,0.1,0,0.2-0.1c0.1-0.1,0.1-0.2,0-0.4c0,0,0-0.1,0-0.1
		c0-0.2-0.2-0.9-0.3-1.4c-0.1-0.4-0.6-0.4-0.7-0.4h-0.2c-0.1,0-0.1,0-0.2,0c-0.2-0.1-1-0.9-1.1-0.9c0,0,0-0.3-0.1-0.5
		c-0.1-0.8-0.2-1.3-0.4-1.5c-0.2-0.1-0.3-0.2-0.5-0.3c-0.2-0.1-0.3-0.1-0.4-0.2c-0.1-0.1-0.3-0.2-0.4-0.3c-0.1-0.1-0.3-0.2-0.4-0.3
		c-0.1-0.1-0.2-0.2-0.3-0.3c-0.2-0.1-0.3-0.3-0.4-0.4c-0.2-0.2-0.5-0.3-0.8-0.5c-0.3-0.2-1-0.2-1.5-0.2c-0.5,0-1,0.4-1.4,0.6
		c-0.1,0-0.1,0.1-0.2,0.1c-0.2,0.1-0.2,0.1-0.3,0.3c0,0.1,0,0.3-0.3,0.8c-0.2,0.4-0.2,0.6-0.1,0.7c0,0.1,0.1,0.1,0.3,0.1
		c0,0,0,0,0.1,0c0,0.2,0.1,0.3,0.1,0.3c0.1,0.1,0.1,0.2,0.2,0.2c0.1,0.1,0.3,0.2,0.4,0.5c0.1,0.2,0.1,0.2,0.1,0.3
		c0,0.1-0.1,0.2-0.1,0.3c0,0.2-0.1,0.3-0.2,0.5c0,0.1-0.1,0.1-0.2,0.2l-0.1,0.1c-0.1,0.2-0.1,0.2-0.2,0.2l-0.1,0c0-0.4,0.1-0.9,0-1
		c0,0,0-0.1,0-0.1c0-0.1,0-0.4-0.3-0.4c0,0-0.1,0-0.1,0c0,0-0.1,0-0.1,0c-0.1,0-0.1,0.1-0.2,0.1c-0.1-0.1-0.1-0.1-0.1-0.1
		c0-0.1,0-0.2-0.1-0.2c-0.2-0.1-0.4-0.3-0.4-0.3c0,0,0-0.1,0.1-0.2c0.1-0.2,0.3-0.4,0.3-0.6l0-0.4l-0.1-0.5v-0.5l0.3-0.2l0.6-0.3
		c0,0,0.1-0.1,0.1-0.1l0.1-0.5l0.2-0.3c0.3,0,1,0,1.1,0c0.1,0,0.4,0,0.6,0c0.3,0,0.6,0,0.7,0c0.3,0,0.4-0.4,0.4-0.6
		c0-0.1,0-0.1,0-0.1c0,0-0.5-0.5-0.9-0.5h-1h0c0-0.1,0-0.1-0.1-0.2c0.1,0,0.2,0,0.2,0c0.3,0,0.4,0,0.5-0.1c0,0,0,0,0.1,0
		c0.2,0,0.6,0.1,0.7,0.2c0,0,0.4,0.1,0.8,0c0,0,0.1,0,0.1,0c0,0,0.1,0,0.1,0c0.1,0,0.1,0,0.2-0.1c0.2-0.5,0.2-0.7,0.2-0.7
		c0,0,0.1-0.1,0.1-0.1c0.1-0.1,0.2-0.1,0.2-0.2c0.1-0.2,0.1-0.6,0-0.8c0-0.1,0.2-0.5,0.2-0.6c0-0.1,0.3-0.2,0.4-0.3l0.1-0.1
		c0.2-0.1,0.5-1,0.5-1.2c0-0.2,0-0.4,0-0.6c0-0.1,0-0.2,0-0.3c0-0.4-0.4-0.5-0.7-0.6l-0.1,0c-0.2-0.1-0.4,0-0.6,0.1
		c-0.1,0-0.2,0.1-0.3,0.1c-0.3,0-0.6,0.3-0.9,0.4c-0.1,0.1-0.2,0.1-0.3,0.2C84,8.1,83.7,8.3,82.8,9c-0.7,0.5-0.5,1-0.4,1.3
		c0,0.1,0.1,0.2,0.1,0.3c0,0.5,0.2,0.6,0.4,0.7c0,0,0,0.1,0,0.2c-0.3,0.2-0.6,0.3-0.7,0.3c-0.2-0.2-0.6-0.4-0.7-0.4c0,0-0.1,0-0.1,0
		c0,0-0.2,0-0.2,0.2c0,0.1,0,0.2,0,0.2c0,0.1,0,0.2,0,0.2c-0.1,0.3,0.3,0.5,0.6,0.6c0,0.1,0,0.3,0,0.5c0,0.1,0,0.1,0,0.1h0h-0.1
		c-0.3,0-0.4,0.1-0.7,0.2l-0.1,0c-0.2,0.1-0.3,0.2-0.4,0.4c0,0.1-0.1,0.1-0.1,0.2c-0.1,0.1-0.2,0.2-0.3,0.4
		c-0.1,0.1-0.2,0.2-0.3,0.4c-0.2,0.3-0.1,0.5-0.1,0.6c0.1,0.1,0.1,0.2-0.1,0.3c-0.3,0.3-0.4,0.4-0.5,0.6c-0.1,0.1-0.1,0.2-0.2,0.3
		c-0.2,0.2-0.2,0.2-0.2,0.3c0,0,0.1,0.1,0.1,0.1c0,0,0,0.2,0,0.2c0,0.4,0.2,0.6,0.3,0.7c0.1,0.1,0.1,0.1,0.1,0.1
		c0,0-0.1,0.1-0.1,0.1l0,0c-0.1,0.2-0.1,0.2-0.4,0.4c-0.1,0.1-0.1,0.1-0.1,0.1c0,0-0.1,0.1-0.4,0.2c0,0-0.1,0-0.1,0.1
		c0-0.1,0-0.5-0.3-0.7c-0.1-0.1-0.1-0.1-0.2-0.1c-0.1,0-0.1,0-0.2,0.1c0,0,0,0-0.1,0c-0.1,0-0.2,0-0.2,0c0,0-0.1,0-0.1-0.1
		c-0.1,0-0.1,0-0.2-0.1c-0.2-0.1-0.4-0.1-0.7-0.3C75.7,18,75.7,18,75.6,18c0,0-0.1,0-0.1-0.1c-0.2-0.1-0.2-0.2-0.4-0.4L75,17.5
		c-0.1-0.1-0.2-0.2-0.3-0.2c-0.2,0-0.4,0.2-0.5,0.4c0,0-0.1,0.1-0.1,0.1c-0.1,0-0.4,0.2-0.8,0.3c0-0.2-0.2-0.3-0.5-0.3h0
		c0,0-0.4,0.1-0.8,0.1c-0.1,0-0.2,0-0.3,0l-0.1,0c0,0,0,0-0.1,0c0,0,0-0.1,0-0.2c0.2-0.2,0.4-0.3,0.4-0.5c0-0.1,0-0.3,0-0.3
		c0,0,0,0,0-0.1l-0.3-0.4c-0.2-0.2-0.5-0.5-0.5-0.5c-0.1-0.1-0.3-0.2-0.4-0.3c0-0.2-0.1-0.5-0.1-0.8c0-0.3-0.2-0.5-0.5-0.5
		c0,0-0.1,0-0.1,0h-0.6c-0.2,0-0.4,0.1-0.5,0.1c-0.1,0-0.1,0-0.2,0.1c-0.1,0-0.2,0-0.5,0c-0.2,0-0.3,0-0.6,0c-0.4,0-0.5,0.2-0.5,0.3
		c0,0,0,0,0,0.1c0,0,0,0-0.2,0c0,0,0,0,0-0.1c0-0.1,0.1-0.4,0-0.6l0-0.1c-0.1-0.2-0.2-0.5-0.3-0.7c-0.1-0.1-0.1-0.3-0.2-0.5
		c0-0.1,0-0.2-0.1-0.3c0-0.1,0-0.1,0-0.2c0-0.1-0.1-0.2-0.2-0.4c-0.1-0.1-0.2-0.3-0.3-0.4c-0.1-0.2-0.2-0.3-0.3-0.4
		c-0.1-0.2-0.2-0.3-0.4-0.3c-0.1,0-0.1,0-0.2,0c-0.1,0-0.1,0-0.2,0c-0.1,0-0.2,0-0.3,0.1c0,0,0,0-0.1,0c-0.1,0-0.3-0.1-0.7,0
		c-0.3,0.1-0.5,0.2-0.7,0.3c-0.1,0.1-0.3,0.1-0.4,0.1h0c-0.2-0.1-0.4-0.1-0.6-0.1c0,0-0.1,0-0.2,0c-0.1,0-0.2,0-0.3,0.2
		c0,0-0.1,0.1-0.3,0.4c-0.3,0.3-0.3,0.3-0.4,0.4c0,0-0.1,0.1-0.2,0.2c-0.2,0.2-0.3,0.3-0.3,0.5c0,0,0,0.1,0,0.1
		c-0.1,0.1-0.1,0.1-0.2,0.2c0,0,0,0,0,0c0,0,0-0.1,0-0.1c0,0,0,0,0-0.1l0-0.1c0-0.1-0.1-0.2-0.3-0.2c-0.1,0-0.3,0-0.4,0.1
		c-0.1,0-0.2,0.1-0.3,0.1c-0.1,0.1-0.2,0.1-0.3,0.2c-0.2,0.1-0.3,0.1-0.4,0.2c0,0-0.1,0.1-0.2,0.1c-0.2,0.2-0.2,0.5-0.1,0.8
		c0,0.1,0.1,0.3,0.1,0.4c0,0-0.1,0-0.2,0c-0.2,0-0.3,0.1-0.4,0.1c-0.1,0-0.2,0.1-0.5,0.2c-0.1,0-0.2,0-0.3,0c0,0-0.1-0.1-0.1-0.1
		c0,0-0.1,0-0.1,0c-0.1,0-0.5,0.2-0.9,0.4c-0.2,0.1-0.2,0.1-0.3,0.1c-0.1,0-0.1,0-0.3,0.1c-0.3,0.1-0.4,0.2-0.5,0.4
		c-0.1,0.1-0.2,0.2-0.4,0.4c-0.3,0.3-0.4,0.8-0.5,1.2c0,0.2-0.1,0.3-0.1,0.4c-0.1,0.3-0.1,0.4-0.1,0.5c0,0.1,0,0.2,0,0.3h0
		c-0.1,0-0.1,0-0.2,0L53.3,19c0,0,0,0,0,0c0,0,0,0-0.1,0c-0.1,0-0.2,0.1-0.2,0.1c-0.1,0.1-0.1,0.1-0.1,0.1c-0.2,0-0.6,0.2-0.7,0.3
		c-0.1,0.1-0.4,0.2-0.5,0.2c-0.2,0-0.3,0.1-0.4,0.2c0,0.1-0.1,0.1-0.2,0.1c-0.3,0-0.4,0-0.6,0c-0.2,0-0.2,0.1-0.2,0.1
		c-0.1,0.2,0,0.4,0.1,0.5c0,0,0.1,0.1,0.1,0.1c0,0,0.9,0.1,1.3,0c0.4,0,0.5-0.1,0.7-0.2c0.1,0,0.2,0,0.4-0.1c0.2,0,0.5-0.1,0.6-0.2
		c0.2-0.1,0.6-0.3,0.7-0.4c0.1,0,0.6-0.1,0.8-0.2c0.2-0.1,0.3-0.3,0.4-0.4l0.1-0.2c0.1-0.1,0.2-0.1,0.4-0.2c0,0.1-0.1,0.3-0.1,0.4
		c0,0.1,0,0.1,0,0.1c0,0,0,0.1,0,0.2c0.1,0.1,0.2,0.1,0.3,0.1c0.2,0,0.3,0,0.5-0.1c0.1,0,0.1,0,0.2,0c0.1,0,0.4-0.1,0.6-0.2
		c0.1,0,0.2-0.1,0.4-0.2c0,0.2,0.1,0.5,0.1,0.8c0.1,0.4,0.2,0.9,0.1,1c0,0.2,0.1,0.4,0.3,0.7c0.1,0.1,0.2,0.3,0.2,0.3
		c0.1,0.2,0.2,0.6,0.2,0.7l0,0.1c0,0.1-0.1,0.3-0.2,0.4c-0.1,0.1-0.1,0.3-0.2,0.7c0,0.2-0.1,0.6-0.1,0.6C58,24.8,58,25,58,25.2
		c0,0.1,0,0.3,0,0.5c-0.1,0.4,0,0.6,0.1,0.7L58,27c-0.1,0.2-0.2,0.7-0.3,0.9c-0.1,0.3-0.2,0.6-0.2,0.6c0,0,0,0,0,0.1
		c0,0.3,0,0.8-0.1,0.9c0,0-0.1,0.1-0.1,0.1c0,0,0,0,0,0h0c0,0-0.1,0.1-0.1,0.1C57,29.8,57,30,56.9,30.2c0,0.1,0,0.2-0.1,0.3
		c-0.1,0.3,0.1,0.6,0.3,0.9c0.1,0.1,0.1,0.2,0.1,0.3c0,0.2,0,0.4,0,0.5c0,0.1,0,0.2,0,0.4c0,0.2,0.1,0.4,0,0.5s-0.1,0.4-0.3,0.8
		c-0.2,0.5-0.3,1.1-0.5,1.4c-0.2,0.3-0.5,0.8-0.8,1.2l-0.2,0.2c-0.2,0.2-0.3,0.4-0.4,0.7c-0.1,0.2-0.2,0.4-0.4,0.8
		c-0.5,0.8-0.4,0.9-0.4,1c0,0.2,0.1,1.7,0,2.3c-0.1,0.7,0,2.3,0,2.8c0,0.4,0.2,0.5,0.4,0.7c0.1,0,0.1,0.1,0.2,0.1
		c0.2,0.2,0.3,0.2,0.4,0.4c0.1,0.1,0.1,0.1,0.2,0.2c0.2,0.3,0.3,1.6,0.4,2.3c0,0.4,0,0.6,0.1,0.8c0.1,0.4,0.5,0.6,0.6,0.7
		c0,0.1,0,0.3,0,0.4c0,0.1,0,0.2,0,0.2c0,0.2,0,0.4-0.1,0.4c-0.1,0.1-0.1,0.2-0.1,0.3c0,0.1,0,0.1,0.1,0.1c0,0.1,0,0.2,0,0.4
		c0,0.1,0,0.2,0,0.2c0,0.1,0,0.2,0.1,0.2c0,0,0.4,0.3,0.7,0.4c0.3,0.1,0.3,0.2,0.3,0.2c0,0.1,0,0.4,0.1,1.4l0,0.1
		c0,0.2,0.1,0.3,0.1,0.4c0,0,0,0.1,0,0.1c0,0.1,0.1,0.3,0.3,0.6c0.1,0.1,0.2,0.3,0.2,0.3c0,0.2,0.2,0.3,0.5,0.5c0,0,0.1,0,0.1,0h0.2
		c0.1,0,0.2-0.1,0.2-0.1c0-0.1,0.1-0.6,0.1-0.7v-0.4c0,0,0,0,0-0.1c0,0-0.1-0.3-0.3-0.4c-0.1-0.1-0.2-0.4-0.2-0.5
		c0-0.2,0-0.7-0.1-0.8c0-0.1-0.2-0.6-0.3-1l-0.1-0.7c0,0-0.2-0.7-0.3-0.8c0,0,0-0.1,0-0.1c0-0.1,0-0.2-0.1-0.4c0-0.1,0-0.3,0-0.5
		c0,0,0,0,0-0.1l-0.3-1c0.2,0,0.5,0,0.6,0c0.1,0,0.1,0.1,0.1,0.2c0.1,0.3,0,0.7-0.2,1c-0.4,0.5,1,2.1,1.7,2.9c0,0.1,0,0.4,0,0.7
		c0,0.2,0.1,0.4,0.3,0.5c0.1,0.1,0.2,0.1,0.2,0.2c0,0.2,0.2,0.6,0.8,1.7c0.3,0.6,0.7,1.3,0.8,1.6c0.1,0.3,0.1,0.7,0,1.1
		c0,0.3-0.1,0.6,0,1c0,1,1,1.6,1,1.6l1,0.7c0,0,0,0,0,0l0.8,0.3c0.1,0.1,3.2,1.8,4.5,2c0.2,0,0.4,0.1,0.7,0.1c0.4,0,0.6,0,0.9-0.1
		c0.4-0.1,0.6-0.1,0.8,0c0.5,0.3,1.5,1.3,2,1.9l0,0c0.3,0.3,0.5,0.4,0.6,0.4l0.1,0c0,0,0.1,0,0.1,0c0.2,0.1,0.4,0.1,0.5,0.2
		c0.2,0,0.4,0,0.7,0.1c0.7,0.2,1.4,1.6,1.4,1.9c0,0.3,0.2,0.6,0.4,0.9c0.1,0.1,0.1,0.2,0.2,0.3c0,0.1,0.2,0.3,0.4,0.3
		c0.1,0,0.2-0.1,0.3-0.1c0.1-0.1,0.2-0.1,0.4-0.1c0.2,0,0.4,0.4,0.5,0.6c0.2,0.3,0.3,0.5,0.4,0.5c0,0,0,0,0,0c0.1,0,0.6,0,0.8,0
		c0.2,0.1,0.7,0.4,1,0.7c0.1,0.1,0.2,0.1,0.2,0l0.5-0.5l0.6-0.5l0.4-0.2c0.3,0.1,0.6,0.3,0.6,0.3l0.2,0.8c0,0,0,0.1,0.1,0.1l0.3,0.2
		c0,1.1,0,2.4-0.1,2.6c-0.1,0.1-0.2,0.1-0.2,0.2c-0.1,0.1-0.1,0.1-0.2,0.1c-0.2,0-0.5,0.3-0.9,0.6c-0.1,0.1-0.2,0.2-0.3,0.3
		c-0.2,0.2-0.3,0.5-0.5,1.1c-0.1,0.3-0.2,0.7-0.3,0.9C82.1,77.6,82,78.2,82,79c0,0.1,0.1,0.2,0.1,0.3c0.1,0.1,0.1,0.2,0.2,0.4
		c0,0,0,0,0,0c-0.2,0-0.3,0.3-0.5,0.6c-0.1,0.1-0.1,0.3-0.2,0.3c-0.2,0.2-0.1,0.6-0.1,1c0,0.1,0,0.2,0,0.3c0,0.4,0.4,0.7,0.8,0.9
		c0.4,0.1,2,1,2.2,1.3c0.1,0.2,0.3,0.4,0.5,0.7c0.2,0.3,0.4,0.6,0.5,0.7c0.2,0.2,0.1,0.6,0,0.8c-0.2,0.3,0.1,0.4,0.2,0.5
		c0.1,0.1,0.2,0.2,0.3,0.3c0.1,0.2,0.2,0.3,0.3,0.4c0.1,0,0.1,0.1,0.1,0.1c0.1,0.1,0.2,0.3,0.3,0.4c0.1,0.1,0.2,0.3,0.3,0.4
		c0.3,0.4,1.4,0.8,1.9,0.9c0.7,0,2,0.4,2.2,0.8c0.2,0.5-0.6,7.8-1.1,8.3c0,0.1-0.1,0.1-0.1,0.2c-0.4,0.5-0.6,0.7-1.6,5
		c-0.7,3.1-0.5,4.5-0.2,5.1c-1.1,0.1-2.2,0.1-3.3,0.1c-28.8,0-52.3-23.4-52.3-52.3C32.7,27.8,56.2,4.3,85,4.3
		c8.1,0,15.7,1.8,22.5,5.1c0.2,0.3,0.4,0.6,0.6,0.7c0.2,0.2,0.5,0.4,0.7,0.7c0.4,0.4,0.8,0.8,1.1,0.9c0.4,0.2,0.7,0.4,1.1,0.7
		c0.3,0.2,1.9,2.1,2.5,2.9c0,0.3,0.3,1.9,1.6,2.2c1.6,0.4,2.1,0.8,2.3,1c0.2,0.2,0.3,0.3,0.7,0.2c0.1,0,0.2-0.1,0.4-0.1
		c0.5-0.1,0.5-0.1,0.9,0.2c0.1,0.1,0.3,0.2,0.6,0.4c0.2,0.1,0.3,0.2,0.4,0.2c0.4,0.2,0.4,0.2,0.6,0.8l0,0.1c0.2,0.4,0.3,0.5,0.3,0.6
		c0.1,0.1,0.1,0.1,0.1,0.9c0,0.7,0.2,1.2,0.5,1.7c0.2,0.4,0.4,0.8,0.3,1.2c-0.1,0.4,0,0.7,0.1,1c0.1,0.4,0.1,0.7,0,1
		c-0.1,0.2-0.3,0.4-0.4,0.6c-0.2,0.3-0.5,0.6-0.2,1c0,0.1,0.1,0.1,0.1,0.1c0.2,0.3,0.2,0.3,0.7,0.4l0.3,0.1c1.1,0.2,2.4,0.6,2.7,0.8
		c0.4,0.3,0.5,0.8,0.3,1c-0.1,0.1-0.2,0.2-0.4,0.3c-0.2,0.1-0.5,0.3-1,0.6c-0.4,0.3-0.7,0.4-0.9,0.5c-0.4,0.2-0.7,0.4-0.6,0.8
		c0.1,0.5,0.7,1.2,1.1,1.7c0.1,0.1,0.2,0.2,0.3,0.3c0.3,0.4,0.6,0.8,0.7,1.2c0.1,0.6,0.3,0.9,0.7,1.1c0.2,0.1,0.4,0.1,0.6,0.1
		c0.1,0,0.3-0.1,0.5,0c0.1,0,0.3,0,0.5,0l0.5,0c0.3,0,0.4,0,0.4,0c0.2,0.2,0.7-0.1,1.1-0.5c0.4-0.5,0.3-0.8,0.1-1.4l-0.1-0.3
		c-0.1-0.4-0.3-0.6-0.4-0.9c-0.1-0.3-0.3-0.5-0.3-0.7c0-0.2-0.1-0.3-0.1-0.5c-0.1-0.3-0.2-0.6-0.2-1.3c0-1-0.2-1.3-0.3-1.5
		c0-0.1-0.1-0.1-0.1-0.2c-0.1-0.2-0.1-0.6,0-0.8c0.1-0.1,0.2-0.2,0.4-0.2h0.1c0.5,0,1,0.3,1.4,0.5c0.9,1.5,1.7,3,2.5,4.5
		c-0.2-0.1-0.5-0.2-0.7-0.2c-0.1,0-0.2,0.1-0.3,0.1c-0.2,0.2-1.1,1.3-1.1,1.3c0,0,0,0,0,0.1c-0.2,0.6-0.4,1.3-0.4,1.3
		c-0.1,0.1-0.6,0.5-0.9,0.8c-0.7,0.6-1,0.8-1,0.9c-0.1,0.2-0.3,0.6-0.3,1.1c0,0.3,0.2,1.3,0.5,2.5c0.1,0.5,0.2,0.9,0.3,1.1
		c0.1,0.3,0,0.7,0,1c0,0.2,0,0.3,0,0.5c0,0.1-0.1,0.3-0.2,0.6c-0.1,0.3-0.3,0.6-0.4,1.1c-0.1,0.3-0.1,0.4-0.2,0.5
		c-0.2,0.2-0.3,0.5-0.3,1.5c0,0.2,0,0.4,0,0.7c0,1.8-0.1,4.4,1,5.7l0.2,0.3c0.9,1,0.9,1,0.8,1.9c0,1.2,0,1.8,0.3,2
		c0.1,0.1,0.4,0.6,0.7,0.9c0.1,0.2,0.3,0.4,0.4,0.5c0.1,0.1,0.1,0.3,0.2,0.4c0.1,0.2,0.2,0.5,0.4,0.8c0.1,0.1,0.1,0.2,0.2,0.3
		c0.2,0.4,0.3,0.6,1.6,0.9c0.7,0.2,0.9,0.4,1,0.5c0.1,0.1,0.2,0.2,0.4,0.2c0.2,0,0.3-0.1,0.7-0.3c1.1-0.7,1.8-1.5,2.3-2.2
		C135.2,85.7,115.7,105.8,90.9,108.6L90.9,108.6z"/>
	<path class="st0" d="M88.4,60.3c0-0.2-0.3-0.3-0.5-0.4c-0.3-0.1-0.6-0.1-0.8-0.2c-0.3,0-0.5-0.1-0.8-0.2c-0.4-0.3-0.4-0.3-0.6-0.5
		L85.6,59c-0.1,0-0.1-0.1-0.1-0.1c-0.1-0.2-0.2-0.3-0.7-0.3c-0.2,0-0.3,0-0.4,0c-0.1,0-0.1,0-0.3-0.1c-0.4-0.2-0.9-0.4-0.9-0.4
		c0,0-0.5-0.4-0.8-0.5c-0.2-0.1-0.5,0-0.8,0c-0.1,0-0.3,0-0.4,0c-0.3,0-1.4,0.1-1.6,0.6c-0.1,0.3-0.3,0.7-0.3,0.7c0,0.1,0,0.1,0,0.2
		c0,0,0.1,0.1,0.1,0.1h0.4c0.2,0,0.3-0.1,0.4-0.1c0,0,0.1-0.1,0.2-0.1c0.2-0.1,0.2-0.2,0.3-0.3c0-0.1,0.1-0.1,0.1-0.1c0,0,0,0,0.1,0
		c0.2,0.1,0.4,0,0.6,0c0.2,0,0.4-0.1,0.4,0c0.3,0.2,0.7,0.6,0.7,0.6c0,0,0.1,0,0.2,0c0,0,0,0,0.1,0c0.2,0.3,0.9,0.5,1.3,0.6
		c0.1,0,0.3,0,0.4,0.1c0.1,0,0.3,0,0.4,0.1c0,0-0.1,0.1-0.1,0.2c0,0,0,0,0,0.1c-0.1,0-0.2,0.1-0.2,0.2c0,0.2,0.1,0.3,0.4,0.4
		l0.1,0.1c0.4,0.2,0.6,0.3,0.8,0.3c0.1,0,0.2,0,0.3,0c0.2,0,0.3,0,0.4,0c0.1,0,0.2,0,0.3,0c0.1,0,0.2,0,0.4-0.1
		c0.4-0.2,0.8-0.4,0.9-0.4C88.3,60.5,88.4,60.4,88.4,60.3L88.4,60.3z"/>
	<path class="st0" d="M92.4,60.7H92l-0.6,0l-0.2,0h-0.8l-0.6-0.2c0,0,0,0-0.1,0c-0.9,0-1.1,0.2-1.2,0.3c0,0-0.1,0.1-0.1,0.1
		c0,0.1,0,0.1,0.1,0.1c0,0,0,0,0,0c0,0-0.1,0.1-0.1,0.1c0,0-0.1,0-0.2,0.1c-0.2,0.1-0.5,0.1-0.6,0.4c0,0.1-0.1,0.1-0.1,0.2
		c-0.1,0.2-0.2,0.3-0.1,0.5c0.1,0.2,0.2,0.2,0.4,0.2c0.2,0,0.4,0,0.6,0c0.2,0,0.4,0,0.6,0c0.1,0,0.2,0,0.2,0c0,0,0.1,0,0.1,0
		c0,0,0.1,0,0.3,0l0.1,0c0.2,0,0.4,0,0.4,0c0.2,0,0.3,0,0.7-0.2c0.7-0.3,1.1-0.3,1.4-0.3c0.3,0,0.4-0.2,0.5-0.2c0,0,0,0,0.1,0.1
		c0.1,0.1,0.1,0.1,0.2,0.1c0.2,0,0.2-0.3,0.2-0.4C93.3,60.9,93.2,60.7,92.4,60.7L92.4,60.7z"/>
	<path class="st0" d="M85.9,61.4c-0.1,0-0.2,0-0.3,0.1c-0.2,0.1-0.4,0-0.6,0c-0.2,0-0.4-0.1-0.5,0c0,0-0.1,0.1-0.1,0.1
		c-0.1,0.1-0.3,0.1-0.3,0.3c0,0.1,0,0.2,0.1,0.2c0,0,0.1,0.1,0.1,0.1c0.1,0.1,0.2,0.1,0.6,0.2c0.3,0.1,0.3,0.1,0.3,0.1
		c0.1,0,0.1,0,0.2,0c0.1,0,0.1,0,0.1,0.1c0,0,0.1,0.1,0.2,0.1s0.2-0.1,0.4-0.2c0.2-0.2,0.3-0.2,0.4-0.2c0.2-0.1,0.2-0.2,0.2-0.3
		C86.8,61.8,86.3,61.4,85.9,61.4L85.9,61.4z"/>
	<path class="st0" d="M95.6,61.3c0,0,0,0-0.1,0c-0.2,0-0.5-0.1-0.5-0.1c0,0,0,0-0.1,0c-0.4,0-0.6,0.1-0.7,0.2c0,0.1,0,0.2,0,0.2
		c0,0,0,0.1,0,0.1c0,0,0,0,0,0.1c0,0.1,0,0.2,0,0.2c0.1,0.1,0.2,0.1,0.3,0.1l0.2,0c0.1,0,0.1,0,0.1,0c0,0,0.1,0,0.1,0
		c0,0,0.1,0,0.1,0c0,0,0,0,0.1,0c0.1,0,0.1,0,0.2-0.1l0.2-0.2c0,0,0,0,0-0.1c0,0,0-0.1,0.1-0.1c0.2,0,0.3-0.2,0.3-0.3
		C96,61.2,95.7,61.2,95.6,61.3L95.6,61.3z"/>
	<path class="st0" d="M100.9,35.4c-0.1-0.1-0.2-0.2-0.4-0.4c-0.2-0.2-0.3-0.3-0.4-0.4c0,0-0.1-0.1-0.1-0.1c0,0,0.1-0.1,0-0.2
		c0-0.1-0.2-0.2-0.4-0.2C98.9,34,98.7,34,98.5,34c-0.1,0-0.1,0-0.2,0h0c0,0,0,0-0.1-0.1c-0.1-0.1-0.1-0.2-0.1-0.3v-0.5
		c0,0,0-0.1,0-0.1c0-0.1,0-0.2,0-0.3c0-0.1-0.1-0.1-0.2-0.1c-0.1,0-0.1,0-0.1,0c-0.1,0-0.1,0-0.2,0.1c-0.2,0.2-0.3,0.4-0.5,0.5
		c-0.2,0.2-0.3,0.3-0.3,0.4c0,0,0,0.1,0,0.2c0,0.1,0,0.2,0,0.3c0,0,0,0.1,0,0.2l0,0.1c0,0,0,0.1,0,0.1c0,0.1-0.1,0.2-0.1,0.4
		c0,0.2-0.1,0.3-0.1,0.4c0,0.1-0.1,0.2-0.1,0.3c0,0.1-0.1,0.2,0,0.3c0,0,0,0,0,0c-0.1,0-0.2,0.1-0.2,0.2c0,0.1,0.1,0.2,0.4,0.2
		c0.3,0.1,0.5,0,0.6,0c0.1,0,0.2,0,0.5,0c0.5,0,0.6,0,0.7-0.1c0.1,0,0.2-0.1,0.4-0.1c0.2,0,0.4-0.1,0.5-0.1c0,0,0,0,0,0
		c-0.1,0.1-0.1,0.2,0,0.3c0.1,0.2,0.3,0.2,0.7,0.2c0.1,0,0.1,0,0.2,0c0.1,0,0.1,0,0.2,0c0.1,0,0.2,0,0.3-0.1
		c0.1-0.1,0.1-0.1,0.1-0.1c0.1,0,0.2-0.1,0.2-0.3c0,0,0-0.1,0.1-0.1c0.1-0.2,0.1-0.3-0.1-0.6C101,35.5,100.9,35.4,100.9,35.4
		L100.9,35.4z"/>
</g>
</svg>
