<?xml version="1.0" encoding="utf-8"?>
<!-- Generator: Adobe Illustrator 22.1.0, SVG Export Plug-In . SVG Version: 6.00 Build 0)  -->
<svg version="1.1" id="Layer_1" xmlns="http://www.w3.org/2000/svg" xmlns:xlink="http://www.w3.org/1999/xlink" x="0px" y="0px"
	 viewBox="0 0 23 15" style="enable-background:new 0 0 23 15;" xml:space="preserve">
<style type="text/css">
	.st0{fill:#000000;}
</style>
<title>Shape</title>
<path class="st0" d="M13.8,5.6c-0.4-1.2-1-2.3-2-3.2c1.3-1,2.7-1.5,4.3-1.5c1.2,0,2.4,0.3,3.4,0.9c1,0.6,1.9,1.5,2.5,2.5
	c0.6,1,0.9,2.2,0.9,3.4c0,1.2-0.3,2.4-0.9,3.4c-0.6,1-1.5,1.9-2.5,2.5c-1,0.6-2.2,0.9-3.4,0.9c-1.6,0-3-0.5-4.3-1.5
	c0.9-0.9,1.6-2,2-3.2h-0.6c-0.4,1.1-1,2-1.8,2.8c-0.8-0.8-1.4-1.7-1.8-2.8H9.1c0.4,1.2,1,2.3,1.9,3.2c-1.3,1-2.7,1.5-4.3,1.5
	c-1.2,0-2.4-0.3-3.4-0.9c-1-0.6-1.9-1.4-2.5-2.5C0.3,10.1,0,8.9,0,7.7c0-1.2,0.3-2.4,0.9-3.4c0.6-1,1.4-1.9,2.5-2.5
	c1-0.6,2.2-0.9,3.4-0.9c1.6,0,3,0.5,4.3,1.5c-0.9,0.9-1.6,2-1.9,3.2h0.6c0.4-1.1,1-2,1.8-2.8c0.8,0.8,1.4,1.8,1.8,2.8H13.8z
	 M6.2,9.2l0.7-3.4H5.5L4.6,7.9L4.6,5.8H3.2L2.6,9.2h0.8l0.5-2.6L4,9.2h0.8l1.1-2.6L5.4,9.2H6.2z M15.7,8.6c-0.1,0-0.1,0-0.2,0
	c-0.2,0-0.3-0.1-0.3-0.2c0,0,0-0.1,0-0.1l0.2-1.2h0.4L16,6.5h-0.4l0.1-0.7h-0.8l-0.4,2.1l0,0.2l0,0.3c0,0.1,0,0.2,0,0.3
	c0,0.4,0.2,0.6,0.7,0.6c0.1,0,0.3,0,0.6-0.1C15.6,9.2,15.7,8.6,15.7,8.6z M9.2,7.8c0.1-0.3,0.1-0.5,0.1-0.6c0-0.1,0-0.2-0.1-0.3
	c0-0.1-0.1-0.2-0.2-0.3C8.9,6.5,8.8,6.5,8.6,6.4c-0.1,0-0.3-0.1-0.5-0.1c-0.2,0-0.5,0.1-1,0.2L7.1,7.2l0.1,0l0.1,0
	C7.5,7,7.7,7,7.9,7c0.4,0,0.5,0.1,0.5,0.3c0,0,0,0.1,0,0.1c0,0,0,0.1,0,0.1c-0.1,0-0.2,0-0.3,0C7.6,7.4,7.3,7.5,7,7.7
	C6.8,7.9,6.6,8.2,6.6,8.5c0,0.2,0.1,0.4,0.2,0.6C7,9.2,7.2,9.3,7.4,9.3c0.4,0,0.7-0.1,0.9-0.3v0.3H9V9.2l0-0.1l0-0.1l0-0.2
	C9,8.7,9.2,7.8,9.2,7.8z M11.8,8.5c-0.3,0.1-0.6,0.2-0.9,0.2c-0.5,0-0.7-0.2-0.7-0.5V8.1h1.7C12,7.8,12,7.6,12,7.4
	c0-0.3-0.1-0.6-0.3-0.7c-0.2-0.2-0.5-0.3-0.8-0.3c-0.4,0-0.8,0.2-1.1,0.5C9.6,7.2,9.4,7.5,9.4,8c0,0.8,0.5,1.3,1.4,1.3
	c0.3,0,0.6,0,0.9-0.1C11.7,9.2,11.8,8.5,11.8,8.5z M20.6,8c0-0.1,0-0.2,0-0.3c0-0.4-0.1-0.7-0.3-0.9c-0.2-0.2-0.6-0.4-1-0.4
	c-0.5,0-0.9,0.2-1.2,0.5c-0.3,0.3-0.4,0.7-0.4,1.2c0,0.9,0.4,1.3,1.3,1.3C20,9.3,20.5,8.9,20.6,8C20.6,8,20.6,8,20.6,8z M14.3,6.4
	c-0.3,0-0.5,0-0.8-0.1c-0.3,0-0.5,0-0.7,0.1c-0.2,0.1-0.3,0.2-0.4,0.3c-0.1,0.1-0.1,0.3-0.1,0.5c0,0.3,0.2,0.6,0.7,0.8
	c0,0,0,0,0.1,0c0.1,0.1,0.2,0.1,0.2,0.1c0,0,0.1,0,0.1,0.1c0,0,0,0.1,0,0.1c0,0.2-0.2,0.3-0.5,0.3c-0.2,0-0.4,0-0.8-0.1l-0.1,0.6h0
	l0.2,0c0,0,0,0,0.1,0c0.1,0,0.1,0,0.1,0c0.1,0,0.2,0,0.3,0c0.1,0,0.2,0,0.2,0c0.9,0,1.3-0.3,1.3-0.9c0-0.4-0.2-0.6-0.6-0.8
	c-0.1,0-0.2-0.1-0.3-0.2c0,0-0.1-0.1-0.1-0.1c0-0.2,0.1-0.3,0.4-0.3c0.1,0,0.3,0,0.6,0L14.3,6.4L14.3,6.4z M16.7,9.2
	c0.1-0.9,0.3-1.4,0.4-1.7c0.1-0.3,0.3-0.4,0.5-0.4h0.1l0.1,0.1L18,6.5c0,0-0.1,0-0.1,0h-0.2c-0.2,0-0.5,0.1-0.7,0.4l0.1-0.4h-0.8
	l-0.5,2.8L16.7,9.2L16.7,9.2L16.7,9.2z M10.3,7.5C10.4,7.2,10.6,7,10.9,7c0.3,0,0.4,0.1,0.4,0.4c0,0,0,0.1,0,0.1c0,0,0,0,0,0.1
	L10.3,7.5C10.3,7.5,10.3,7.5,10.3,7.5z M19.3,7c0.3,0,0.4,0.2,0.4,0.6c0,0,0,0.1,0,0.2c0,0,0,0.1,0,0.1c0,0.1-0.1,0.3-0.2,0.4
	c-0.1,0.1-0.2,0.2-0.3,0.2c-0.1,0-0.1,0.1-0.2,0.1c-0.3,0-0.5-0.2-0.5-0.6c0-0.2,0.1-0.4,0.2-0.6C18.9,7.1,19.1,7,19.3,7
	C19.3,7,19.3,7,19.3,7z M7.5,8.4C7.5,8.1,7.7,8,8.2,8c0,0,0,0,0.1,0c0,0,0.1,0,0.1,0c0,0.1,0,0.3-0.1,0.4C8.2,8.6,8,8.7,7.7,8.7
	C7.6,8.7,7.5,8.6,7.5,8.4C7.5,8.4,7.5,8.4,7.5,8.4z"/>
</svg>
