<?xml version="1.0" encoding="utf-8"?>
<!-- Generator: Adobe Illustrator 17.1.0, SVG Export Plug-In . SVG Version: 6.00 Build 0)  -->
<!DOCTYPE svg PUBLIC "-//W3C//DTD SVG 1.1//EN" "http://www.w3.org/Graphics/SVG/1.1/DTD/svg11.dtd">
<svg version="1.1" id="Layer_1" xmlns="http://www.w3.org/2000/svg" xmlns:xlink="http://www.w3.org/1999/xlink" x="0px" y="0px"
	 viewBox="0 0 216 118.5" enable-background="new 0 0 216 118.5" xml:space="preserve">
<g>
	<polygon fill-rule="evenodd" clip-rule="evenodd" fill="#FFFFFF" points="216,118.5 216,0 0,0 0,118.5 216,118.5 	"/>
	<polygon fill-rule="evenodd" clip-rule="evenodd" fill="#EF3E33" points="216,27.8 216,18.1 103.7,18.1 103.7,27.8 216,27.8 	"/>
	<polygon fill-rule="evenodd" clip-rule="evenodd" fill="#EF3E33" points="216,45.9 216,36.1 103.7,36.1 103.7,45.9 216,45.9 	"/>
	<polygon fill-rule="evenodd" clip-rule="evenodd" fill="#EF3E33" points="216,63.9 216,54.2 103.7,54.2 103.7,63.9 216,63.9 	"/>
	<polygon fill-rule="evenodd" clip-rule="evenodd" fill="#EF3E33" points="216,9.7 216,0 103.7,0 103.7,9.7 216,9.7 	"/>
	<polygon fill-rule="evenodd" clip-rule="evenodd" fill="#004FA3" points="103.5,63.9 103.5,0 0.2,0 0.2,63.9 103.5,63.9 	"/>
	<polygon fill-rule="evenodd" clip-rule="evenodd" fill="#EF3E33" points="216,82.4 216,72.6 0,72.6 0,82.4 216,82.4 	"/>
	<polygon fill-rule="evenodd" clip-rule="evenodd" fill="#EF3E33" points="216,100.4 216,90.7 0,90.7 0,100.4 216,100.4 	"/>
	<polygon fill-rule="evenodd" clip-rule="evenodd" fill="#EF3E33" points="216,118.5 216,108.8 0,108.8 0,118.5 216,118.5 	"/>
	<polygon fill-rule="evenodd" clip-rule="evenodd" fill="#FFFFFF" points="94.6,35.5 95.6,32.5 93,30.6 96.3,30.6 97.3,27.6 
		98.2,30.6 101.4,30.6 98.8,32.5 99.8,35.5 97.3,33.6 94.6,35.5 	"/>
	<polygon fill-rule="evenodd" clip-rule="evenodd" fill="#FFFFFF" points="94.6,48.5 95.6,45.4 93,43.6 96.3,43.6 97.3,40.5 
		98.2,43.6 101.4,43.6 98.8,45.4 99.8,48.5 97.3,46.6 94.6,48.5 	"/>
	<polygon fill-rule="evenodd" clip-rule="evenodd" fill="#FFFFFF" points="94.9,61.4 95.9,58.4 93.2,56.5 96.5,56.5 97.4,53.5 
		98.4,56.5 101.7,56.5 99.1,58.4 100.1,61.4 97.4,59.5 94.9,61.4 	"/>
	<polygon fill-rule="evenodd" clip-rule="evenodd" fill="#FFFFFF" points="5,10 6,7 3.4,5.1 6.6,5.1 7.6,2.1 8.6,5.1 11.7,5.1 
		9.1,7 10.2,10 7.6,8.1 5,10 	"/>
	<polygon fill-rule="evenodd" clip-rule="evenodd" fill="#FFFFFF" points="5.3,23 6.2,19.9 3.7,18.1 6.8,18.1 7.8,15 8.8,18.1 
		12,18.1 9.4,19.9 10.4,23 7.8,21.1 5.3,23 	"/>
	<polygon fill-rule="evenodd" clip-rule="evenodd" fill="#FFFFFF" points="5.5,36 6.4,32.9 3.9,31.1 7.1,31.1 8.1,28 9,31.1 
		12.2,31.1 9.6,32.9 10.6,36 8.1,34.1 5.5,36 	"/>
	<polygon fill-rule="evenodd" clip-rule="evenodd" fill="#FFFFFF" points="5.5,49 6.4,45.9 3.9,44 7.1,44 8.1,41 9,44 12.2,44 
		9.6,45.9 10.6,49 8.1,47 5.5,49 	"/>
	<polygon fill-rule="evenodd" clip-rule="evenodd" fill="#FFFFFF" points="5.7,61.8 6.7,58.9 4.1,57 7.3,57 8.3,53.9 9.2,57 
		12.5,57 9.9,58.9 10.9,61.8 8.3,60 5.7,61.8 	"/>
	<polygon fill-rule="evenodd" clip-rule="evenodd" fill="#FFFFFF" points="14,16.7 15,13.7 12.5,11.8 15.6,11.8 16.6,8.8 17.6,11.8 
		20.8,11.8 18.2,13.7 19.2,16.7 16.6,14.8 14,16.7 	"/>
	<polygon fill-rule="evenodd" clip-rule="evenodd" fill="#FFFFFF" points="14.3,29.4 15.3,26.4 12.7,24.6 15.8,24.6 16.8,21.5 
		17.8,24.6 21,24.6 18.4,26.4 19.4,29.4 16.8,27.6 14.3,29.4 	"/>
	<polygon fill-rule="evenodd" clip-rule="evenodd" fill="#FFFFFF" points="14.3,42.9 15.3,39.9 12.7,38 15.8,38 16.8,35 17.8,38 
		21,38 18.4,39.9 19.4,42.9 16.8,41 14.3,42.9 	"/>
	<polygon fill-rule="evenodd" clip-rule="evenodd" fill="#FFFFFF" points="14,56.4 15,53.4 12.5,51.5 15.6,51.5 16.6,48.4 
		17.6,51.5 20.8,51.5 18.2,53.4 19.2,56.4 16.6,54.5 14,56.4 	"/>
	<polygon fill-rule="evenodd" clip-rule="evenodd" fill="#FFFFFF" points="23,9.8 24,6.8 21.5,4.9 24.6,4.9 25.6,1.9 26.6,4.9 
		29.8,4.9 27.3,6.8 28.2,9.8 25.6,7.9 23,9.8 	"/>
	<polygon fill-rule="evenodd" clip-rule="evenodd" fill="#FFFFFF" points="23.3,22.8 24.3,19.7 21.7,17.9 24.9,17.9 25.9,14.8 
		26.9,17.9 30,17.9 27.4,19.7 28.4,22.8 25.9,20.9 23.3,22.8 	"/>
	<polygon fill-rule="evenodd" clip-rule="evenodd" fill="#FFFFFF" points="23.5,35.7 24.6,32.7 21.9,30.8 25.1,30.8 26.1,27.8 
		27.1,30.8 30.3,30.8 27.7,32.7 28.7,35.7 26.1,33.8 23.5,35.7 	"/>
	<polygon fill-rule="evenodd" clip-rule="evenodd" fill="#FFFFFF" points="23.5,48.7 24.6,45.6 21.9,43.8 25.1,43.8 26.1,40.8 
		27.1,43.8 30.3,43.8 27.7,45.6 28.7,48.7 26.1,46.9 23.5,48.7 	"/>
	<polygon fill-rule="evenodd" clip-rule="evenodd" fill="#FFFFFF" points="23.8,61.6 24.8,58.7 22.2,56.7 25.3,56.7 26.4,53.7 
		27.3,56.7 30.5,56.7 27.9,58.7 28.9,61.6 26.4,59.7 23.8,61.6 	"/>
	<polygon fill-rule="evenodd" clip-rule="evenodd" fill="#FFFFFF" points="32.1,16.5 33.1,13.5 30.5,11.6 33.7,11.6 34.7,8.6 
		35.6,11.6 38.9,11.6 36.3,13.5 37.3,16.6 34.7,14.6 32.1,16.5 	"/>
	<polygon fill-rule="evenodd" clip-rule="evenodd" fill="#FFFFFF" points="32.3,29.2 33.3,26.2 30.7,24.3 33.9,24.3 34.9,21.3 
		35.9,24.3 39.1,24.3 36.5,26.2 37.5,29.2 34.9,27.4 32.3,29.2 	"/>
	<polygon fill-rule="evenodd" clip-rule="evenodd" fill="#FFFFFF" points="32.3,42.7 33.3,39.7 30.7,37.8 33.9,37.8 34.9,34.7 
		35.9,37.8 39.1,37.8 36.5,39.7 37.5,42.7 34.9,40.8 32.3,42.7 	"/>
	<polygon fill-rule="evenodd" clip-rule="evenodd" fill="#FFFFFF" points="32.1,56.1 33.1,53.1 30.5,51.2 33.7,51.2 34.7,48.2 
		35.6,51.2 38.9,51.2 36.3,53.1 37.3,56.1 34.7,54.3 32.1,56.1 	"/>
	<polygon fill-rule="evenodd" clip-rule="evenodd" fill="#FFFFFF" points="41.1,9.6 42.1,6.6 39.5,4.7 42.8,4.7 43.7,1.6 44.7,4.7 
		47.9,4.7 45.3,6.6 46.3,9.6 43.7,7.7 41.1,9.6 	"/>
	<polygon fill-rule="evenodd" clip-rule="evenodd" fill="#FFFFFF" points="41.4,22.5 42.3,19.5 39.7,17.6 43,17.6 43.9,14.6 
		44.9,17.6 48.2,17.6 45.5,19.5 46.5,22.5 43.9,20.7 41.4,22.5 	"/>
	<polygon fill-rule="evenodd" clip-rule="evenodd" fill="#FFFFFF" points="41.6,35.5 42.6,32.5 40,30.6 43.2,30.6 44.1,27.6 
		45.1,30.6 48.4,30.6 45.8,32.5 46.8,35.5 44.1,33.6 41.6,35.5 	"/>
	<polygon fill-rule="evenodd" clip-rule="evenodd" fill="#FFFFFF" points="41.6,48.5 42.6,45.4 40,43.6 43.2,43.6 44.1,40.5 
		45.1,43.6 48.4,43.6 45.8,45.4 46.8,48.5 44.1,46.6 41.6,48.5 	"/>
	<polygon fill-rule="evenodd" clip-rule="evenodd" fill="#FFFFFF" points="41.8,61.4 42.8,58.4 40.2,56.5 43.4,56.5 44.4,53.5 
		45.4,56.5 48.6,56.5 46,58.4 47,61.4 44.4,59.5 41.8,61.4 	"/>
	<polygon fill-rule="evenodd" clip-rule="evenodd" fill="#FFFFFF" points="50.2,16.3 51.1,13.2 48.6,11.4 51.8,11.4 52.8,8.4 
		53.7,11.4 56.9,11.4 54.4,13.2 55.4,16.3 52.8,14.4 50.2,16.3 	"/>
	<polygon fill-rule="evenodd" clip-rule="evenodd" fill="#FFFFFF" points="50.4,29 51.4,26 48.8,24.1 52,24.1 53,21.1 54,24.1 
		57.2,24.1 54.6,26 55.6,29 53,27.1 50.4,29 	"/>
	<polygon fill-rule="evenodd" clip-rule="evenodd" fill="#FFFFFF" points="50.4,42.5 51.4,39.4 48.8,37.5 52,37.5 53,34.5 54,37.5 
		57.2,37.5 54.6,39.4 55.6,42.5 53,40.6 50.4,42.5 	"/>
	<polygon fill-rule="evenodd" clip-rule="evenodd" fill="#FFFFFF" points="50.2,55.9 51.1,52.8 48.6,51 51.8,51 52.8,48 53.7,51 
		56.9,51 54.4,52.8 55.4,55.9 52.8,54 50.2,55.9 	"/>
	<polygon fill-rule="evenodd" clip-rule="evenodd" fill="#FFFFFF" points="59.2,9.3 60.2,6.3 57.6,4.4 60.8,4.4 61.8,1.4 62.8,4.4 
		66,4.4 63.4,6.3 64.4,9.3 61.8,7.4 59.2,9.3 	"/>
	<polygon fill-rule="evenodd" clip-rule="evenodd" fill="#FFFFFF" points="59.5,22.3 60.4,19.3 57.8,17.4 61,17.4 62,14.3 63,17.4 
		66.2,17.4 63.6,19.3 64.6,22.3 62,20.4 59.5,22.3 	"/>
	<polygon fill-rule="evenodd" clip-rule="evenodd" fill="#FFFFFF" points="59.6,35.3 60.6,32.3 58.1,30.4 61.3,30.4 62.3,27.4 
		63.2,30.4 66.5,30.4 63.9,32.3 64.8,35.3 62.3,33.4 59.6,35.3 	"/>
	<polygon fill-rule="evenodd" clip-rule="evenodd" fill="#FFFFFF" points="59.6,48.2 60.6,45.2 58.1,43.3 61.3,43.3 62.3,40.3 
		63.2,43.3 66.5,43.3 63.9,45.2 64.8,48.2 62.3,46.4 59.6,48.2 	"/>
	<polygon fill-rule="evenodd" clip-rule="evenodd" fill="#FFFFFF" points="59.9,61.1 60.9,58.2 58.3,56.3 61.5,56.3 62.5,53.3 
		63.4,56.3 66.7,56.3 64.1,58.2 65.1,61.1 62.5,59.3 59.9,61.1 	"/>
	<polygon fill-rule="evenodd" clip-rule="evenodd" fill="#FFFFFF" points="68.3,16.1 69.2,13 66.7,11.1 69.8,11.1 70.8,8.1 
		71.8,11.1 75,11.1 72.4,13 73.4,16.1 70.8,14.2 68.3,16.1 	"/>
	<polygon fill-rule="evenodd" clip-rule="evenodd" fill="#FFFFFF" points="68.5,28.8 69.5,25.8 66.9,23.8 70.1,23.8 71.1,20.8 
		72,23.8 75.2,23.8 72.6,25.8 73.7,28.8 71.1,26.9 68.5,28.8 	"/>
	<polygon fill-rule="evenodd" clip-rule="evenodd" fill="#FFFFFF" points="68.5,42.2 69.5,39.2 66.9,37.3 70.1,37.3 71.1,34.3 
		72,37.3 75.2,37.3 72.6,39.2 73.7,42.2 71.1,40.3 68.5,42.2 	"/>
	<polygon fill-rule="evenodd" clip-rule="evenodd" fill="#FFFFFF" points="68.3,55.7 69.2,52.6 66.7,50.8 69.8,50.8 70.8,47.7 
		71.8,50.8 75,50.8 72.4,52.6 73.4,55.7 70.8,53.8 68.3,55.7 	"/>
	<polygon fill-rule="evenodd" clip-rule="evenodd" fill="#FFFFFF" points="94.2,9.6 95.2,6.6 92.6,4.7 95.8,4.7 96.8,1.6 97.8,4.7 
		100.9,4.7 98.4,6.6 99.4,9.6 96.8,7.7 94.2,9.6 	"/>
	<polygon fill-rule="evenodd" clip-rule="evenodd" fill="#FFFFFF" points="94.4,22.5 95.4,19.5 92.8,17.6 96,17.6 97,14.6 98,17.6 
		101.2,17.6 98.6,19.5 99.6,22.5 97,20.7 94.4,22.5 	"/>
	<polygon fill-rule="evenodd" clip-rule="evenodd" fill="#FFFFFF" points="77.3,9.1 78.3,6 75.7,4.2 78.8,4.2 79.8,1.2 80.9,4.2 
		84,4.2 81.4,6 82.4,9.1 79.8,7.2 77.3,9.1 	"/>
	<polygon fill-rule="evenodd" clip-rule="evenodd" fill="#FFFFFF" points="77.5,22 78.5,19 75.9,17.1 79.1,17.1 80.1,14.1 
		81.1,17.1 84.2,17.1 81.6,19 82.7,22 80.1,20.2 77.5,22 	"/>
	<polygon fill-rule="evenodd" clip-rule="evenodd" fill="#FFFFFF" points="77.8,35.1 78.7,32 76.1,30.2 79.3,30.2 80.4,27.1 
		81.3,30.2 84.5,30.2 81.9,32 82.9,35.1 80.4,33.2 77.8,35.1 	"/>
	<polygon fill-rule="evenodd" clip-rule="evenodd" fill="#FFFFFF" points="77.8,48 78.7,45 76.1,43.1 79.3,43.1 80.4,40.1 
		81.3,43.1 84.5,43.1 81.9,45 82.9,48 80.4,46.2 77.8,48 	"/>
	<polygon fill-rule="evenodd" clip-rule="evenodd" fill="#FFFFFF" points="78,60.9 79,58 76.4,56.1 79.6,56.1 80.6,53 81.5,56.1 
		84.7,56.1 82.2,58 83.2,60.9 80.6,59.1 78,60.9 	"/>
	<polygon fill-rule="evenodd" clip-rule="evenodd" fill="#FFFFFF" points="86.3,15.8 87.3,12.8 84.7,10.9 87.9,10.9 88.9,7.8 
		89.9,10.9 93.1,10.9 90.5,12.8 91.4,15.8 88.9,13.9 86.3,15.8 	"/>
	<polygon fill-rule="evenodd" clip-rule="evenodd" fill="#FFFFFF" points="86.5,28.6 87.6,25.6 85,23.6 88.1,23.6 89.1,20.6 
		90.1,23.6 93.3,23.6 90.7,25.6 91.7,28.6 89.1,26.6 86.5,28.6 	"/>
	<polygon fill-rule="evenodd" clip-rule="evenodd" fill="#FFFFFF" points="86.5,42 87.6,39 85,37.1 88.1,37.1 89.1,34.1 90.1,37.1 
		93.3,37.1 90.7,39 91.7,42 89.1,40.1 86.5,42 	"/>
	<polygon fill-rule="evenodd" clip-rule="evenodd" fill="#FFFFFF" points="86.3,55.4 87.3,52.4 84.7,50.5 87.9,50.5 88.9,47.4 
		89.9,50.5 93.1,50.5 90.5,52.4 91.4,55.4 88.9,53.6 86.3,55.4 	"/>
</g>
</svg>
