<?xml version="1.0" encoding="utf-8"?>
<!-- Generator: Adobe Illustrator 22.1.0, SVG Export Plug-In . SVG Version: 6.00 Build 0)  -->
<svg version="1.1" id="Layer_1" xmlns="http://www.w3.org/2000/svg" xmlns:xlink="http://www.w3.org/1999/xlink" x="0px" y="0px"
	 viewBox="0 0 20 20" style="enable-background:new 0 0 20 20;" xml:space="preserve">
<style type="text/css">
	.st0{fill:#000000;}
</style>
<path class="st0" d="M8.4,7.6V7.2H6.6v2.2h1.8V8.9H7.1V8.5h1.2V8H7.1V7.6L8.4,7.6z M10.9,7.8c0-0.2-0.1-0.4-0.3-0.5
	c-0.2-0.1-0.4-0.1-0.6-0.1H8.7v2.2h0.5V8.6h0.6c0.2,0,0.3,0,0.4,0.1c0.1,0.1,0.1,0.3,0.1,0.4v0.3h0.5V8.9c0-0.2,0-0.3-0.1-0.4
	c-0.1-0.1-0.2-0.1-0.3-0.2C10.7,8.2,10.9,8,10.9,7.8L10.9,7.8z M10.2,8.1c-0.1,0-0.2,0-0.3,0H9.3V7.6h0.7c0.1,0,0.2,0,0.3,0
	s0.1,0.1,0.1,0.2C10.3,8,10.2,8,10.2,8.1L10.2,8.1z M1.3,8.9h1.1l0.2,0.5h1.1V7.6l0.8,1.7h0.5l0.8-1.7v1.7h0.5V7.2H5.3L4.7,8.7
	L4,7.2H3.1v2.1L2.2,7.2H1.5L0.6,9.2v0.1h0.5L1.3,8.9L1.3,8.9z M1.8,7.5l0.4,0.9H1.5C1.5,8.4,1.8,7.5,1.8,7.5z M13.1,7.6h0.5V7.2H13
	c-0.4,0-0.6,0.1-0.8,0.3C12,7.7,12,8,12,8.3c0,0.4,0.1,0.7,0.3,0.8c0.1,0.2,0.4,0.3,0.8,0.2h0.6l0.2-0.5h1.1l0.2,0.5h1.1V7.7l1,1.7
	H18V7.2h-0.5v1.5l-0.9-1.5h-0.8v2.1l-0.9-2.1H14l-0.7,1.7H13c-0.1,0-0.3,0-0.4-0.1c-0.1-0.1-0.1-0.3-0.1-0.5c0-0.2,0.1-0.4,0.2-0.5
	C12.8,7.7,12.9,7.6,13.1,7.6L13.1,7.6z M14.4,7.5l0.4,0.9H14C14,8.4,14.4,7.5,14.4,7.5z M11.2,7.2h0.5v2.2h-0.5
	C11.2,9.4,11.2,7.2,11.2,7.2z M13.1,11.6c0-0.2-0.1-0.4-0.3-0.5C12.7,11,12.5,11,12.2,11H11v2.2h0.5v-0.8h0.6c0.2,0,0.3,0,0.4,0.1
	c0.1,0.1,0.1,0.3,0.1,0.4v0.3h0.5v-0.4c0-0.2,0-0.3-0.1-0.4c-0.1-0.1-0.2-0.2-0.3-0.2C13,12,13.1,11.8,13.1,11.6L13.1,11.6z
	 M12.4,11.9c-0.1,0-0.2,0.1-0.3,0h-0.6v-0.5h0.7c0.1,0,0.2,0,0.3,0c0.1,0,0.1,0.1,0.1,0.2S12.5,11.8,12.4,11.9L12.4,11.9z M9.9,11
	H8.2l-0.7,0.7L6.8,11H4.7v2.2h2.1l0.7-0.7l0.7,0.7h1v-0.7h0.7c0.5,0,0.9-0.1,0.9-0.7C10.7,11.1,10.3,11,9.9,11z M6.5,12.7H5.3v-0.4
	h1.2v-0.5H5.3v-0.4h1.3l0.6,0.6L6.5,12.7L6.5,12.7z M8.6,13l-0.8-0.9l0.8-0.9V13z M9.9,12H9.2v-0.6h0.7c0.2,0,0.3,0.1,0.3,0.3
	C10.2,11.9,10.1,12,9.9,12z M15.2,11.4V11h-1.8v2.2h1.8v-0.5h-1.2v-0.4h1.2v-0.5h-1.2v-0.4L15.2,11.4z M19.3,12.1
	C19.3,12,19.3,12,19.3,12.1c-0.2-0.2-0.4-0.2-0.6-0.2l-0.3,0c-0.1,0-0.1,0-0.2,0c-0.1,0-0.1-0.1-0.1-0.2c0-0.1,0-0.1,0.1-0.2
	c0.1,0,0.1,0,0.2,0h1V11h-1.1c-0.6,0-0.8,0.3-0.8,0.7c0,0.7,0.6,0.7,1.1,0.7c0.1,0,0.1,0,0.2,0s0.1,0.1,0.1,0.1c0,0.1,0,0.1-0.1,0.1
	c0,0-0.1,0.1-0.2,0.1h-1v0.5h1c0.3,0,0.6-0.1,0.7-0.3c0.1-0.1,0.1-0.3,0.1-0.4C19.4,12.3,19.4,12.2,19.3,12.1L19.3,12.1z M18.5,13.6
	h-1.4v-0.2c-0.2,0.1-0.4,0.2-0.7,0.2h-4.3v-0.7c0-0.1,0-0.1-0.1-0.1H12v0.8h-1.4v-0.8c-0.2,0.1-0.5,0.1-0.7,0.1H9.7v0.7H7.9
	l-0.4-0.5l-0.4,0.5H4.2v-3.1h2.8L7.5,11l0.4-0.5h1.9c0.2,0,0.6,0,0.7,0.2v-0.2h1.7c0.2,0,0.5,0,0.7,0.2v-0.2h2.6v0.2
	c0.1-0.1,0.4-0.2,0.6-0.2h1.4v0.2c0.2-0.1,0.4-0.2,0.7-0.2h1V0.3H0.6V8l0.6-1.3h1.4l0.2,0.4V6.7h1.6l0.4,0.8L5,6.7h5.1
	c0.2,0,0.4,0,0.6,0.2V6.7h1.4v0.2c0.2-0.1,0.5-0.2,0.9-0.2h2l0.2,0.4V6.7h1.5L17,7.1V6.7h1.5v3.1h-1.5l-0.3-0.5v0.5h-1.9l-0.2-0.5
	h-0.5L14,9.8h-1c-0.4,0-0.7-0.1-0.8-0.2v0.2H9.9V9.1C9.9,9,9.8,9,9.8,9H9.7v0.8H5.3V9.4L5.1,9.8H4.2L4,9.4v0.4H2.3L2.1,9.3H1.6
	L1.4,9.8H0.6v9.3h18.7v-5.7C19.1,13.6,18.8,13.6,18.5,13.6L18.5,13.6z M16.5,12.7h-1v0.5h1c0.5,0,0.8-0.2,0.8-0.7
	c0-0.2-0.1-0.4-0.2-0.5c-0.1-0.1-0.3-0.2-0.6-0.2l-0.3,0c-0.1,0-0.1,0-0.2,0c-0.1,0-0.1-0.1-0.1-0.2c0-0.1,0-0.1,0.1-0.2
	c0.1,0,0.1,0,0.2,0h1V11h-1.1c-0.6,0-0.8,0.3-0.8,0.7c0,0.7,0.6,0.7,1.1,0.7c0.1,0,0.1,0,0.2,0c0,0,0.1,0.1,0.1,0.1
	c0,0.1,0,0.1-0.1,0.1C16.7,12.7,16.6,12.7,16.5,12.7z"/>
</svg>
