<svg xmlns="http://www.w3.org/2000/svg" viewBox="0 0 143.89 146.55"><defs><style>.cls-1{fill:#002e52;}</style></defs><title>TGFLORIS_STAMP_BLUE296</title><g id="SINGLE_HIT_EMBOSS" data-name="SINGLE HIT EMBOSS"><path class="cls-1" d="M176,156.49c-15.08,0-23.72-19.11-26-25-1.58-4-3.22-9.25-4.5-13.51-1.28,4.26-2.92,9.46-4.52,13.52-2.28,5.85-10.91,25-26,25-6,0-9.7-2.4-9.7-6.26a5.18,5.18,0,0,1,5.48-5.22c3.22,0,5.39,2,5.81,5.4.05.59.72.7,1.27.7,4.14,0,7.88-6.83,11.76-21.5L137,102.1h-7a1.45,1.45,0,0,1-1.46-1.7l.66-2.48a1.34,1.34,0,0,1,1.47-1.13h7.73c.27-.63.52-1.24.75-1.85-2.1-7.85-4.72-17.46-9.83-17.46A2.15,2.15,0,0,0,127,79.3c-.73,3.45-2.9,5.07-6.81,5.07-3,0-5.68-2.34-5.68-5,0-3.35,3.16-6.94,12-6.94,6,0,13.08,3.7,15.68,6.26a43,43,0,0,1,3.26,3.56,41.42,41.42,0,0,1,3.26-3.56c2.24-2.18,9.14-6.26,15.68-6.26,8.86,0,12,3.58,12,6.94,0,2.67-2.65,5-5.68,5-3.92,0-6.08-1.62-6.82-5.09a2.15,2.15,0,0,0-2.28-1.79c-5.06,0-7.7,9.61-9.82,17.46.23.6.48,1.22.76,1.85h7.71a1.36,1.36,0,0,1,1.47,1,1.66,1.66,0,0,1,.1.27l.57,2.27a1.51,1.51,0,0,1-.32,1.27,1.48,1.48,0,0,1-1.13.5h-7l7.38,27.5c3.92,14.67,7.65,21.51,11.76,21.51.55,0,1.22-.12,1.27-.68.42-3.4,2.59-5.42,5.82-5.42a5.18,5.18,0,0,1,5.48,5.22C185.67,154.09,182,156.49,176,156.49Zm-30.5-44.2.78,2.65c1.33,4.54,3.33,11.14,5.23,16,2.2,5.61,10.44,23.94,24.5,23.94,5,0,8.08-1.78,8.08-4.64a3.57,3.57,0,0,0-3.86-3.6c-3.24,0-4,2.49-4.2,4-.1,1-.91,2.13-2.88,2.13-5.09,0-9.08-6.79-13.33-22.71l-7.92-29.54h8.94l-.53-2.06h-8.73l-.21-.48c-.42-.93-.77-1.81-1.1-2.66l-.09-.25.07-.25c2.39-8.86,5.09-18.91,11.45-18.91a3.79,3.79,0,0,1,3.85,3c.49,2.32,1.57,3.84,5.24,3.84,2.32,0,4.05-1.79,4.05-3.4,0-2.57-2.73-5.32-10.39-5.32-6,0-12.54,3.84-14.55,5.8A38.18,38.18,0,0,0,146.11,84l-.64.85-.65-.85a38,38,0,0,0-3.75-4.21C139,77.75,132.28,74,126.52,74c-7.66,0-10.39,2.75-10.39,5.32,0,1.6,1.73,3.4,4.06,3.4,3.67,0,4.75-1.52,5.23-3.81a3.8,3.8,0,0,1,3.86-3.07c6.41,0,9.1,10,11.46,18.92l.07.25-.09.24c-.32.86-.67,1.74-1.09,2.66l-.21.48H130.7l-.55,2.07h8.92L131.15,130c-4.21,15.92-8.2,22.71-13.33,22.71-2,0-2.78-1.11-2.88-2.15-.18-1.46-1-4-4.2-4a3.58,3.58,0,0,0-3.87,3.6c0,2.86,3.1,4.64,8.09,4.64,14.06,0,22.3-18.32,24.49-23.94,1.92-4.87,3.91-11.47,5.25-16Z" transform="translate(-73.72 -44.31)"/><path class="cls-1" d="M103,126.14H99.55V108.62H103Z" transform="translate(-73.72 -44.31)"/><path class="cls-1" d="M109.9,126.14l6.37-14.27h-6.72v-3.25h11.93l-7.86,17.52Z" transform="translate(-73.72 -44.31)"/><path class="cls-1" d="M169.08,110.39a9.66,9.66,0,0,1,6-2.09c3,0,5.48,1.72,5.48,4.74a3.9,3.9,0,0,1-3.42,4c2,.3,3.43,2,3.43,4.59,0,3.05-2.46,4.78-5.5,4.78a9.67,9.67,0,0,1-6-2.09l2.46-2.46a4.45,4.45,0,0,0,3,1.17,2.19,2.19,0,0,0,2.48-2.11c0-1.17-.85-2.14-4.06-2.21h-.46V115.6l.44,0c3.14,0,4.06-.74,4.06-2,0-1.13-1.11-1.87-2.46-1.87a4.44,4.44,0,0,0-3.05,1.17Z" transform="translate(-73.72 -44.31)"/><path class="cls-1" d="M197.88,117.58c0,5.36-3.42,8.56-7.08,8.56s-6.94-3.2-6.94-8.56c0-6.33,3.31-9.2,6.94-9.2S197.88,111.26,197.88,117.58Zm-10.54,0c0,3.54,1.42,5.22,3.47,5.22s3.62-1.52,3.62-5.22c0-4.43-1.63-5.83-3.62-5.83S187.34,113.3,187.34,117.58Z" transform="translate(-73.72 -44.31)"/><path class="cls-1" d="M132,160.67v1.46h2.28v.77H132v1.61h2.39v.77h-3.22v-5.38h3.16v.77Z" transform="translate(-73.72 -44.31)"/><path class="cls-1" d="M138.9,162.77c-.65-.21-1.3-.6-1.3-1.41a1.51,1.51,0,0,1,1.61-1.54,2,2,0,0,1,1.37.58l-.51.56a1.21,1.21,0,0,0-.86-.35.73.73,0,0,0-.75.72c0,.4.28.61.81.77l.41.13a1.6,1.6,0,0,1,1.23,1.55,1.59,1.59,0,0,1-1.71,1.55,2.44,2.44,0,0,1-1.72-.76L138,164a1.61,1.61,0,0,0,1.21.56.83.83,0,0,0,.9-.77c0-.47-.34-.72-.8-.87Z" transform="translate(-73.72 -44.31)"/><path class="cls-1" d="M146.27,160.67v4.61h-.83v-4.61H144v-.78h3.77v.77Z" transform="translate(-73.72 -44.31)"/><path class="cls-1" d="M150.6,164.88a.48.48,0,1,1,1,0,.48.48,0,1,1-1,0Z" transform="translate(-73.72 -44.31)"/><path class="cls-1" d="M157,159.89a2.69,2.69,0,1,1,0,5.39h-2v-5.39Zm-1.16,4.57H157a1.88,1.88,0,1,0,0-3.76h-1.16Z" transform="translate(-73.72 -44.31)"/><path class="cls-1" d="M145.47,179a59.9,59.9,0,1,1,59.9-59.9A60,60,0,0,1,145.47,179Zm0-117.77a57.87,57.87,0,1,0,57.87,57.87A57.94,57.94,0,0,0,145.47,61.19Z" transform="translate(-73.72 -44.31)"/><path class="cls-1" d="M114.8,52.63l1,2.12,3.1-1.4.66,1.45-3.1,1.4L118,59.63l-1.57.71-3.81-8.46,4.88-2.2.66,1.46Z" transform="translate(-73.72 -44.31)"/><path class="cls-1" d="M131.19,53.43,131.6,55l-5,1.32-2.35-9,1.68-.44,1.94,7.4Z" transform="translate(-73.72 -44.31)"/><path class="cls-1" d="M146,48.79A4.8,4.8,0,1,1,141,44.32,4.78,4.78,0,0,1,146,48.79Zm-7.85.47A3.07,3.07,0,1,0,141.07,46,3.05,3.05,0,0,0,138.19,49.26Z" transform="translate(-73.72 -44.31)"/><path class="cls-1" d="M157,45.19a2.62,2.62,0,0,1,2.44,3.22A2.55,2.55,0,0,1,157,50.79l1.86,4.08-2-.3-1.8-4-.65-.1-.55,3.61-1.69-.26,1.41-9.18Zm-2.3,3.66,1.63.25a1.11,1.11,0,0,0,1.41-.94,1.18,1.18,0,0,0-1-1.32L155,46.58Z" transform="translate(-73.72 -44.31)"/><path class="cls-1" d="M166.33,57l-1.64-.53,2.85-8.83,1.64.53Z" transform="translate(-73.72 -44.31)"/><path class="cls-1" d="M175.7,56.23a2.61,2.61,0,0,1,2.89-4.33A3.64,3.64,0,0,1,180.3,54l-1.44.58a2,2,0,0,0-1-1.19,1,1,0,0,0-1.39.49c-.27.54,0,.94.54,1.51l.56.55a2.84,2.84,0,0,1,.72,3.36,2.78,2.78,0,0,1-3.91,1.14,4.56,4.56,0,0,1-2.14-2.64l1.47-.64A2.87,2.87,0,0,0,175.1,59a1.23,1.23,0,0,0,1.69-.43,1.51,1.51,0,0,0-.55-1.74Z" transform="translate(-73.72 -44.31)"/><path class="cls-1" d="M187.62,64.23a1,1,0,1,1,.15,1.35A1,1,0,0,1,187.62,64.23Z" transform="translate(-73.72 -44.31)"/><path class="cls-1" d="M196.22,72.93c-1.7,1.61-3.23,1.22-4.5-.13l-.11-.12.72-.69.12.13c.87.92,1.81,1.25,3.06.06l2.56-2.44.7.74Z" transform="translate(-73.72 -44.31)"/><path class="cls-1" d="M201.16,80a2.74,2.74,0,0,1-3.33-4.35l3.27-2.51.63.82-3.17,2.43a1.71,1.71,0,1,0,2.08,2.71l3.16-2.43.63.82Z" transform="translate(-73.72 -44.31)"/><path class="cls-1" d="M203,87.64l1.12-1.47-1.47-2.48-1.83.27-.55-.93,7.07-1.08.56.95-4.35,5.68Zm1.79-2.34,1.76-2.24-2.82.46Z" transform="translate(-73.72 -44.31)"/><path class="cls-1" d="M212.34,92l.41.94-6.09,2.63-.47-1.08,3.31-5-4.61,2-.4-.94,6.09-2.63L211,89l-3.3,5Z" transform="translate(-73.72 -44.31)"/><path class="cls-1" d="M214.53,101.87l-1.88.45.63,2.62-.92.22-.63-2.62-2.71.65-.23-1,6.44-1.54.9,3.74-.92.22Z" transform="translate(-73.72 -44.31)"/><path class="cls-1" d="M210.7,113l1.61-.91-.36-2.86-1.78-.48-.14-1.07,6.92,1.82.14,1.09L210.83,114Zm2.57-1.44,2.5-1.36-2.76-.7Z" transform="translate(-73.72 -44.31)"/><path class="cls-1" d="M210.91,121.82l5.24.08-2.75-2.33,2.83-2.24-5.25-.08,0-1,6.62.1,0,1.17-2.71,2.09,2.64,2.17,0,1.17-6.62-.1Z" transform="translate(-73.72 -44.31)"/><path class="cls-1" d="M216.14,127.35l-1.79-.23L214,129.9l-.94-.12.35-2.78-2-.25-.37,2.92-.94-.12.5-3.94,6.58.83-.49,3.87-.94-.12Z" transform="translate(-73.72 -44.31)"/><path class="cls-1" d="M215.14,137.77l-.24,1-6.44-1.56.28-1.14,5.65-2-4.88-1.18.24-1,6.44,1.56-.27,1.14-5.64,2Z" transform="translate(-73.72 -44.31)"/><path class="cls-1" d="M207.22,140.88l.33-1,6.26,2.15-.33,1Z" transform="translate(-73.72 -44.31)"/><path class="cls-1" d="M204.28,148l1.84.07,1.19-2.63L206,144.06l.44-1,5,5.16-.45,1-7.14-.29Zm2.94.12,2.84.15-2-2Z" transform="translate(-73.72 -44.31)"/><path class="cls-1" d="M204.71,153.6a1.9,1.9,0,0,1,2.3-.49,1.86,1.86,0,0,1,.63,2.67,2.47,2.47,0,0,1-1.48,1.08l-.28-.89a1.51,1.51,0,0,0,.91-.7.9.9,0,0,0-.29-1.25c-.43-.25-.81-.08-1.32.37l-.41.36a1.94,1.94,0,0,1-3-2.45,3,3,0,0,1,1.88-1.35l.31.91a2,2,0,0,0-1.35.93,1,1,0,0,0,.24,1.44,1.18,1.18,0,0,0,1.43-.3Z" transform="translate(-73.72 -44.31)"/><path class="cls-1" d="M200.79,163.81l-1.5-1.23-1.71,2.08-.73-.6,1.71-2.08-2.15-1.77.65-.79,5.12,4.21-2.44,3L199,166Z" transform="translate(-73.72 -44.31)"/><path class="cls-1" d="M191,167.45l-.69-.68,2.65-2.66,4.7,4.68-.73.73-4-4Z" transform="translate(-73.72 -44.31)"/><path class="cls-1" d="M185.71,174.95a3.42,3.42,0,1,1,4.79.52A3.4,3.4,0,0,1,185.71,174.95Zm4.54-3.62a2.39,2.39,0,1,0-.37,3.36A2.38,2.38,0,0,0,190.25,171.33Z" transform="translate(-73.72 -44.31)"/><path class="cls-1" d="M183,180.65a1.86,1.86,0,0,1-2.77-.6,1.81,1.81,0,0,1,.31-2.42l-3-1.42,1-.63,2.92,1.4.64-.39-1.42-2.31.87-.53,3.46,5.66Zm-.36-3.21-1.13.69a1,1,0,0,0-.4,1.38,1,1,0,0,0,1.4.27l1.14-.69Z" transform="translate(-73.72 -44.31)"/><path class="cls-1" d="M174.29,177.87l.92-.46,3,5.93-.92.46Z" transform="translate(-73.72 -44.31)"/><path class="cls-1" d="M171.61,182.46a1.9,1.9,0,0,1,2.13,1,1.86,1.86,0,0,1-1.12,2.5,2.47,2.47,0,0,1-1.83,0l.31-.87a1.5,1.5,0,0,0,1.15,0,.9.9,0,0,0,.53-1.17c-.19-.46-.6-.56-1.28-.51l-.54,0a2,2,0,0,1-2.12-1.19,2,2,0,0,1,1.24-2.56,3,3,0,0,1,2.31.07l-.3.91a2,2,0,0,0-1.64-.08,1,1,0,0,0-.68,1.29c.22.54.73.66,1.32.63Z" transform="translate(-73.72 -44.31)"/><path class="cls-1" d="M162.84,186a1,1,0,0,1-1.85.45,1,1,0,1,1,1.85-.45Z" transform="translate(-73.72 -44.31)"/><path class="cls-1" d="M150.05,189.18a1.42,1.42,0,0,1,.81-1.57,1.64,1.64,0,0,1-1.26-1.45c-.12-1.3,1-1.89,1.94-2a1.88,1.88,0,0,1,2.26,1.6,1.67,1.67,0,0,1-1,1.66,1.46,1.46,0,0,1,1.11,1.39c.1,1.12-.9,1.69-1.78,1.77A1.73,1.73,0,0,1,150.05,189.18Zm2.66-3.25a.91.91,0,0,0-1.09-.83.91.91,0,1,0,.16,1.81C152.52,186.83,152.74,186.34,152.71,185.93Zm.15,2.9c0-.42-.34-.73-1-.68s-.86.42-.82.85.38.72,1,.67S152.91,189.33,152.86,188.83Z" transform="translate(-73.72 -44.31)"/><path class="cls-1" d="M146.84,185.46a3,3,0,0,0-1.42.3,2.19,2.19,0,0,0-1.08,1.26,1.4,1.4,0,0,1,1.05-.43,2.14,2.14,0,0,1-.17,4.27,2.2,2.2,0,0,1-2.06-2.17,3.65,3.65,0,0,1,1.45-3.54,3.73,3.73,0,0,1,2.23-.67Zm-.49,3.29a1.09,1.09,0,0,0-1.06-1.19,1.07,1.07,0,0,0-1.12,1.15,1.17,1.17,0,0,0,1.08,1.19A1.09,1.09,0,0,0,146.35,188.74Z" transform="translate(-73.72 -44.31)"/><path class="cls-1" d="M133.36,186.58c.36-2.31,1.82-2.93,3.64-2.64l.16,0-.15,1-.17,0c-1.25-.2-2.19.11-2.46,1.81l-.55,3.49-1-.16Z" transform="translate(-73.72 -44.31)"/><path class="cls-1" d="M128.71,188.23l.44-1.75-2.71-.68.23-.92,2.71.68.48-1.92-2.85-.72.23-.92,3.84,1-1.62,6.42-3.78-1,.23-.92Z" transform="translate(-73.72 -44.31)"/><path class="cls-1" d="M120.48,186.73a1.86,1.86,0,0,1-1.24-2.55,1.81,1.81,0,0,1,2.09-1.26l-.74-3.23,1.13.41.71,3.16.7.26.94-2.55,1,.35-2.29,6.23Zm2.3-2.28-1.25-.46a1,1,0,0,0-1.33.54,1,1,0,0,0,.66,1.27l1.25.46Z" transform="translate(-73.72 -44.31)"/><path class="cls-1" d="M113.29,176.13l-2.43,4.65,3.32-1.41.73,3.53,2.43-4.66.9.47-3.06,5.87-1-.54-.65-3.36-3.13,1.39-1-.54,3.06-5.87Z" transform="translate(-73.72 -44.31)"/><path class="cls-1" d="M107.67,172.53l.84.58-1.53,2.2-.32,4.59-.91-.64.25-3.44-3.14,1.42-.92-.64,4.2-1.87Z" transform="translate(-73.72 -44.31)"/><path class="cls-1" d="M96.28,171.79l-.76-.68,4.41-4.94.87.78-.9,5.92,3.34-3.74.76.68-4.41,4.94-.87-.78.89-5.91Z" transform="translate(-73.72 -44.31)"/><path class="cls-1" d="M92,162a1.91,1.91,0,0,1-.36,2.33,1.85,1.85,0,0,1-2.71-.37,2.46,2.46,0,0,1-.49-1.76l.93.05a1.51,1.51,0,0,0,.33,1.1.9.9,0,0,0,1.27.17c.39-.31.37-.73.13-1.37l-.19-.51a2,2,0,0,1,.54-2.37,2,2,0,0,1,2.8.46,3,3,0,0,1,.59,2.23l-1,0a2,2,0,0,0-.39-1.59,1,1,0,0,0-1.43-.28,1.17,1.17,0,0,0-.23,1.44Z" transform="translate(-73.72 -44.31)"/><path class="cls-1" d="M85.51,157.39l4.75-3.1.56.86-4.75,3.09,1,1.52-.8.52-2.53-3.89.8-.52Z" transform="translate(-73.72 -44.31)"/><path class="cls-1" d="M81.14,151.67A1.86,1.86,0,0,1,82,149a1.8,1.8,0,0,1,2.38.49L86,146.58l.54,1.07-1.62,2.8.34.67,2.42-1.23.46.9-5.91,3Zm3.23-.11-.6-1.18a1,1,0,0,0-1.34-.51,1,1,0,0,0-.38,1.38l.6,1.19Z" transform="translate(-73.72 -44.31)"/><path class="cls-1" d="M79.31,145.32l1.68-.65-1-2.61.89-.34,1,2.61,1.84-.71-1.06-2.75.89-.34,1.43,3.7-6.19,2.39L77.38,143l.89-.34Z" transform="translate(-73.72 -44.31)"/><path class="cls-1" d="M77,138.65l1.73-.48-.74-2.7.92-.25.74,2.7,1.9-.52-.78-2.84.92-.25,1,3.82-6.38,1.76-1-3.75.92-.25Z" transform="translate(-73.72 -44.31)"/><path class="cls-1" d="M75.22,130.48l5.6-.95.17,1-5.6.95.3,1.79-.94.16L74,128.86l.94-.16Z" transform="translate(-73.72 -44.31)"/><path class="cls-1" d="M76.34,121.35a1,1,0,0,1,0-1.9,1,1,0,1,1,0,1.9Z" transform="translate(-73.72 -44.31)"/><path class="cls-1" d="M79.81,108.58l1,.12-.47,3.72-6.58-.83.13-1,5.62.71Z" transform="translate(-73.72 -44.31)"/><path class="cls-1" d="M79.45,99.37a3.42,3.42,0,1,1-4.12,2.51A3.41,3.41,0,0,1,79.45,99.37ZM78.07,105a2.4,2.4,0,1,0-1.76-2.89A2.38,2.38,0,0,0,78.07,105Z" transform="translate(-73.72 -44.31)"/><path class="cls-1" d="M78.92,91.24l.37-1,6.16,2.41L85,93.79,79.16,95l4.67,1.83-.37,1L77.3,95.38l.43-1.09,5.85-1.22Z" transform="translate(-73.72 -44.31)"/><path class="cls-1" d="M82,84.9a3.31,3.31,0,1,1,5.81,3.18L86.6,90.22,80.79,87Zm4.25,3.95.68-1.24a2.31,2.31,0,1,0-4.06-2.22l-.68,1.24Z" transform="translate(-73.72 -44.31)"/><path class="cls-1" d="M92,75.66a3.42,3.42,0,1,1-4.76.75A3.4,3.4,0,0,1,92,75.66Zm-3.43,4.68A2.39,2.39,0,1,0,88,77,2.38,2.38,0,0,0,88.56,80.33Z" transform="translate(-73.72 -44.31)"/><path class="cls-1" d="M94.58,68l.71-.74,4.78,4.58-.81.85-5.89-1.11L97,75l-.71.74L91.5,71.18l.81-.85,5.88,1.1Z" transform="translate(-73.72 -44.31)"/><path class="cls-1" d="M103.15,64.34a1,1,0,1,1,1.34.19A1,1,0,0,1,103.15,64.34Z" transform="translate(-73.72 -44.31)"/></g></svg>