<svg xmlns="http://www.w3.org/2000/svg" aria-hidden="true" focusable="false" role="presentation" class="icon icon-free-delivery" viewBox="0 0 32 32"><path d="M28 23H4v-4.5C4 16.019 6.018 14 8.498 14H11v7h10v-7h2.502A4.504 4.504 0 0 1 28 18.5V23zm-2 2.5c0 .827-.673 1.5-1.5 1.5s-1.5-.673-1.5-1.5V25h3v.5zm-17 0c0 .827-.673 1.5-1.5 1.5S6 26.327 6 25.5V25h3v.5zM13 14h6v5h-6v-5zm-4.847-2l.714-5H12v2h8V7h3.133l.714 5H8.153zM18 7h-4V5h4v2zm12 11.5a6.507 6.507 0 0 0-4.064-6.023L24.867 5H20V3h-8v2H7.133l-1.069 7.477A6.507 6.507 0 0 0 2 18.5V25h2v.5C4 27.43 5.57 29 7.5 29s3.5-1.57 3.5-3.5V25h10v.5c0 1.93 1.57 3.5 3.5 3.5s3.5-1.57 3.5-3.5V25h2v-6.5zM24 15c-1.103 0-2 .897-2 2s.897 2 2 2 2-.897 2-2-.897-2-2-2M8 15c-1.103 0-2 .897-2 2s.897 2 2 2 2-.897 2-2-.897-2-2-2" fill="#000" fill-rule="evenodd"/></svg>