<svg xmlns="http://www.w3.org/2000/svg" aria-hidden="true" focusable="false" role="presentation" class="icon icon-samples" viewBox="0 0 515.48 456.94"><defs><style>.cls-1{fill:none}</style></defs><g id="Group_341" data-name="Group 341"><path d="M98.7 126a6.64 6.64 0 0 1-.8-.05c-11.7-1.45-52.5-5.76-86.27-.15a6.71 6.71 0 0 1-7.83-6.6V41.33a6.74 6.74 0 0 1 4.79-6.43c8.94-2.66 55.41-15.16 92.67.1a6.71 6.71 0 0 1 4.16 6.23v78.12a6.71 6.71 0 0 1-6.69 6.65zm-2.27-6.71zm-86.28-2.37zM50.37 114a415.05 415.05 0 0 1 46.06 2.7v-74c-32.36-12.48-72.36-2.84-83.63.33v73.47a257.64 257.64 0 0 1 37.57-2.5zM12.8 41.32zm83.63-.14z" transform="translate(-1.02 -27.55)"/><path d="M92.36 117H12.97V93.36h9V108h61.39V93.36h9V117z"/><path d="M104.59 484.48H7.11A6.09 6.09 0 0 1 1 478.4V141.94a6.09 6.09 0 0 1 6.09-6.08h97.48a6.09 6.09 0 0 1 6.08 6.08V478.4a6.09 6.09 0 0 1-6.06 6.08zm-94.57-9h91.65V144.85H10z" transform="translate(-1.02 -27.55)"/><path d="M55.91 218.3c-29.85 0-50.72-7-52-7.46l3.25-9.46c.45.16 45.86 15.31 97.61-.06l2.85 9.59a181.54 181.54 0 0 1-51.71 7.39zM53.72 78.32a15.57 15.57 0 0 1-10-3.33 13.56 13.56 0 0 1 5.84-23.77c6.56-1.39 10.69.85 13 3 4.15 3.83 5 9.68 4.54 13.52l-.07.41a15.14 15.14 0 0 1-3.93 7.25l-.25.26-.29.22a11.25 11.25 0 0 1-4.8 2 20.21 20.21 0 0 1-4.04.44zm-.26-18.52a9.64 9.64 0 0 0-2 .23 4.56 4.56 0 0 0-2 8c1.47 1.21 3.93 1.6 6.57 1h.22a2.22 2.22 0 0 0 .71-.24 6.14 6.14 0 0 0 1.27-2.43 7.09 7.09 0 0 0-1.74-5.54 4.3 4.3 0 0 0-3.03-1.02z" transform="translate(-1.02 -27.55)"/><path id="Path_2926" data-name="Path 2926" class="cls-1" d="M51.86 59.64a4.87 4.87 0 0 0-2.11 8.54 6.66 6.66 0 0 0 5.57 1.06 3.61 3.61 0 0 0 1.59-.66 5.72 5.72 0 0 0 1.49-2.74c.37-2.87-1.26-7.32-6.53-6.19" transform="translate(-1.02 -27.55)"/></g><g id="Group_341-2" data-name="Group 341"><path d="M233.23 126a6.64 6.64 0 0 1-.8-.05c-11.7-1.45-52.5-5.76-86.27-.15a6.71 6.71 0 0 1-7.82-6.62V41.33a6.74 6.74 0 0 1 4.79-6.43c8.94-2.66 55.42-15.16 92.67.06a6.71 6.71 0 0 1 4.2 6.23v78.12a6.71 6.71 0 0 1-6.69 6.71zm-2.23-6.69zm-86.28-2.37zM184.9 114a415.05 415.05 0 0 1 46.06 2.7v-74c-32.36-12.48-72.36-2.84-83.63.33v73.47a257.64 257.64 0 0 1 37.57-2.5zm-37.56-72.7zm83.66-.12z" transform="translate(-1.02 -27.55)"/><path d="M226.9 117h-79.4V93.36h9V108h61.4V93.36h9V117z"/><path d="M239.12 484.48h-97.48a6.09 6.09 0 0 1-6.09-6.08V141.94a6.09 6.09 0 0 1 6.09-6.08h97.48a6.09 6.09 0 0 1 6.08 6.08V478.4a6.09 6.09 0 0 1-6.08 6.08zm-94.57-9h91.65V144.85h-91.65z" transform="translate(-1.02 -27.55)"/><path d="M190.44 218.3c-29.85 0-50.72-7-52-7.46l3.25-9.46c.45.16 45.86 15.31 97.61-.06l2.85 9.59a181.53 181.53 0 0 1-51.71 7.39zM188.25 78.32a15.57 15.57 0 0 1-10-3.33 13.56 13.56 0 0 1 5.84-23.77c6.56-1.39 10.69.85 13 3 4.15 3.83 5 9.68 4.54 13.52l-.07.41a15.14 15.14 0 0 1-3.93 7.25l-.25.26-.29.22a11.25 11.25 0 0 1-4.8 2 20.21 20.21 0 0 1-4.04.44zM188 59.8a9.64 9.64 0 0 0-2 .23 4.56 4.56 0 0 0-2 8c1.47 1.21 3.93 1.6 6.57 1h.22a2.22 2.22 0 0 0 .71-.24 6.14 6.14 0 0 0 1.27-2.43 7.09 7.09 0 0 0-1.77-5.55 4.3 4.3 0 0 0-3-1.01z" transform="translate(-1.02 -27.55)"/><path id="Path_2926-2" data-name="Path 2926" class="cls-1" d="M186.39 59.64a4.87 4.87 0 0 0-2.11 8.54 6.66 6.66 0 0 0 5.57 1.06 3.61 3.61 0 0 0 1.59-.66 5.72 5.72 0 0 0 1.49-2.74c.37-2.87-1.26-7.32-6.53-6.19" transform="translate(-1.02 -27.55)"/></g><g id="Group_341-3" data-name="Group 341"><path d="M368.77 126a6.71 6.71 0 0 1-.8 0c-11.71-1.46-52.5-5.76-86.28-.15a6.71 6.71 0 0 1-7.73-5.48 6.8 6.8 0 0 1-.1-1.13V41.33a6.74 6.74 0 0 1 4.79-6.43c8.94-2.66 55.43-15.16 92.67.06a6.71 6.71 0 0 1 4.16 6.23v78.12a6.71 6.71 0 0 1-6.68 6.69zm-2.27-6.71zm-86.28-2.37zm40.21-2.92a415 415 0 0 1 46.06 2.7v-74c-32.36-12.48-72.36-2.84-83.63.33v73.47a257.64 257.64 0 0 1 37.57-2.5zm-37.56-72.68zm83.63-.14z" transform="translate(-1.02 -27.55)"/><path d="M362.43 117h-79.4V93.36h9V108h61.4V93.36h9V117z"/><path d="M374.65 484.48h-97.48a6.09 6.09 0 0 1-6.08-6.08V141.94a6.09 6.09 0 0 1 6.08-6.08h97.48a6.09 6.09 0 0 1 6.08 6.08V478.4a6.09 6.09 0 0 1-6.08 6.08zm-94.57-9h91.65V144.85h-91.64z" transform="translate(-1.02 -27.55)"/><path d="M326 218.3c-29.86 0-50.72-7-52-7.46l3.25-9.46c.45.16 45.86 15.31 97.61-.06l2.85 9.59A181.53 181.53 0 0 1 326 218.3zM323.78 78.32a15.57 15.57 0 0 1-10-3.33 13.56 13.56 0 0 1 5.85-23.77c6.56-1.39 10.68.85 13 3 4.15 3.83 5 9.68 4.54 13.52l-.07.41a15.14 15.14 0 0 1-3.93 7.25l-.25.26-.29.22a11.26 11.26 0 0 1-4.8 2 20.21 20.21 0 0 1-4.05.44zm-.26-18.53a9.62 9.62 0 0 0-2 .23 4.56 4.56 0 0 0-2 8c1.47 1.21 3.93 1.6 6.57 1h.22a2.23 2.23 0 0 0 .71-.24 6.15 6.15 0 0 0 1.26-2.43 7.09 7.09 0 0 0-1.74-5.54 4.3 4.3 0 0 0-3.01-1.01z" transform="translate(-1.02 -27.55)"/><path id="Path_2926-3" data-name="Path 2926" class="cls-1" d="M321.92 59.64a4.87 4.87 0 0 0-2.11 8.54 6.66 6.66 0 0 0 5.57 1.06 3.61 3.61 0 0 0 1.59-.66 5.72 5.72 0 0 0 1.49-2.74c.37-2.87-1.26-7.32-6.53-6.19" transform="translate(-1.02 -27.55)"/></g><g id="Group_341-4" data-name="Group 341"><path d="M504.52 126a6.71 6.71 0 0 1-.8 0c-11.7-1.46-52.49-5.76-86.28-.15a6.71 6.71 0 0 1-7.73-5.48 6.8 6.8 0 0 1-.1-1.13V41.33a6.74 6.74 0 0 1 4.79-6.43c8.94-2.66 55.43-15.16 92.67.06a6.71 6.71 0 0 1 4.16 6.23v78.12a6.71 6.71 0 0 1-6.69 6.71zm-2.27-6.71zM416 116.94zm40.19-2.94a415 415 0 0 1 46.06 2.7v-74c-32.36-12.48-72.36-2.84-83.63.33v73.47a257.64 257.64 0 0 1 37.57-2.5zm-37.57-72.68zm83.63-.14z" transform="translate(-1.02 -27.55)"/><path d="M498.19 117h-79.4V93.36h9V108h61.4V93.36h9V117z"/><path d="M510.41 484.48h-97.48a6.09 6.09 0 0 1-6.08-6.08V141.94a6.09 6.09 0 0 1 6.08-6.08h97.48a6.09 6.09 0 0 1 6.09 6.08V478.4a6.09 6.09 0 0 1-6.09 6.08zm-94.57-9h91.66V144.85h-91.66z" transform="translate(-1.02 -27.55)"/><path d="M461.73 218.3c-29.86 0-50.72-7-52-7.46l3.25-9.46c.45.16 45.86 15.31 97.61-.06l2.85 9.59a181.53 181.53 0 0 1-51.71 7.39zM459.54 78.32a15.57 15.57 0 0 1-10-3.33 13.56 13.56 0 0 1 5.85-23.77c6.56-1.39 10.68.85 13 3 4.15 3.83 5 9.68 4.54 13.52l-.07.41a15.14 15.14 0 0 1-3.86 7.23l-.25.26-.29.22a11.27 11.27 0 0 1-4.8 2 20.19 20.19 0 0 1-4.12.46zm-.26-18.53a9.62 9.62 0 0 0-2 .23 4.56 4.56 0 0 0-2 8c1.47 1.21 3.93 1.6 6.57 1h.22a2.23 2.23 0 0 0 .71-.24 6.16 6.16 0 0 0 1.22-2.42 7.09 7.09 0 0 0-1.74-5.54 4.3 4.3 0 0 0-2.98-1.02z" transform="translate(-1.02 -27.55)"/><path id="Path_2926-4" data-name="Path 2926" class="cls-1" d="M457.68 59.64a4.87 4.87 0 0 0-2.11 8.54 6.66 6.66 0 0 0 5.57 1.06 3.61 3.61 0 0 0 1.59-.66 5.72 5.72 0 0 0 1.49-2.74c.37-2.87-1.26-7.32-6.53-6.19" transform="translate(-1.02 -27.55)"/></g></svg>