<svg xmlns="http://www.w3.org/2000/svg" aria-hidden="true" focusable="false" role="presentation" class="icon icon-account" viewBox="0 0 16.845 19.406"><path d="M8.423 9.244c-4.506 0-8.173 3.3-8.173 7.364 0 1.881 4.4 2.548 8.173 2.548s8.173-.667 8.173-2.548c0-4.058-3.667-7.364-8.173-7.364zm0 9.156c-4.581 0-7.417-.93-7.417-1.792 0-3.643 3.327-6.607 7.417-6.607s7.417 2.964 7.417 6.607c0 .862-2.836 1.792-7.417 1.792zm4.032-14.12a4.03 4.03 0 1 0-4.03 4.03 4.03 4.03 0 0 0 4.03-4.03zm-7.3 0a3.274 3.274 0 1 1 3.268 3.27 3.273 3.273 0 0 1-3.274-3.27z" stroke="#000"/></svg>