<?xml version="1.0" encoding="utf-8"?>
<!-- Generator: Adobe Illustrator 22.1.0, SVG Export Plug-In . SVG Version: 6.00 Build 0)  -->
<svg version="1.1" id="Layer_1" xmlns="http://www.w3.org/2000/svg" xmlns:xlink="http://www.w3.org/1999/xlink" x="0px" y="0px"
	 viewBox="0 0 2104 670.8" style="enable-background:new 0 0 2104 670.8;" xml:space="preserve">
<style type="text/css">
	.st0{fill:#000000;}
	.st1{fill:#000000;}
	.st2{fill:none;}
</style>
<g>
	<path class="st0" d="M918,561.6H797.6l75.2-462.3h120.4L918,561.6z M696.4,99.4L581.6,417.3L568,348.8l0,0L527.6,141
		c0,0-4.9-41.6-57.1-41.6H280.8l-2.2,7.9c0,0,58,12.1,125.9,52.9l104.6,401.6h125.4L825.9,99.4H696.4L696.4,99.4z M1643,561.6h110.6
		l-96.4-462.3h-96.7c-44.7,0-55.6,34.4-55.6,34.4l-179.5,427.8h125.5l25.1-68.6h153L1643,561.6L1643,561.6z M1510.5,398.2l63.2-173
		l35.5,173H1510.5z M1334.7,210.6l17.2-99.3c0,0-53-20.2-108.2-20.2c-59.7,0-201.5,26.1-201.5,153c0,119.5,166.5,120.9,166.5,183.7
		s-149.3,51.5-198.6,11.9l-17.9,103.8c0,0,53.8,26.1,135.9,26.1c82.2,0,206-42.6,206-158.3c0-120.2-168-131.4-168-183.7
		C1166,175.4,1283.3,182.2,1334.7,210.6L1334.7,210.6z"/>
</g>
<path class="st1" d="M568.1,348.9L527.6,141c0,0-4.9-41.6-57.1-41.6H280.8l-2.2,7.8c0,0,91.2,18.9,178.6,89.7
	C540.8,264.5,568.1,348.9,568.1,348.9z"/>
<path class="st2" d="M139.8-545.9h1752.5v1752.5H139.8V-545.9z"/>
</svg>
