<?xml version="1.0" encoding="utf-8"?>
<!-- Generator: Adobe Illustrator 17.1.0, SVG Export Plug-In . SVG Version: 6.00 Build 0)  -->
<!DOCTYPE svg PUBLIC "-//W3C//DTD SVG 1.1//EN" "http://www.w3.org/Graphics/SVG/1.1/DTD/svg11.dtd">
<svg version="1.1" id="Layer_1" xmlns="http://www.w3.org/2000/svg" xmlns:xlink="http://www.w3.org/1999/xlink" x="0px" y="0px"
	 viewBox="0 0 170.1 113.4" enable-background="new 0 0 170.1 113.4" xml:space="preserve">
<g>
	<polygon fill-rule="evenodd" clip-rule="evenodd" fill="#214097" points="170.1,0 170.1,113.4 0,113.4 0,0 170.1,0 	"/>
	<path fill-rule="evenodd" clip-rule="evenodd" fill="#FEDD24" d="M85,9.6l1.5,4.5l4.8,0l-3.9,2.8l1.4,4.6L85,18.8l-3.9,2.8l1.4-4.6
		l-3.9-2.8l4.8,0L85,9.6L85,9.6z M64.6,86.3l1.5,4.5l4.8,0L67,93.7l1.4,4.6l-3.9-2.8l-3.9,2.8l1.4-4.6l-3.9-2.8l4.8,0L64.6,86.3
		L64.6,86.3z M49.6,71.3l1.5,4.5l4.8,0L52,78.7l1.4,4.6l-3.9-2.8l-3.9,2.8l1.4-4.6l-3.9-2.8l4.8,0L49.6,71.3L49.6,71.3z M44,50.7
		l1.5,4.5l4.8,0l-3.9,2.8l1.4,4.6L44,59.9l-3.9,2.8l1.4-4.6l-3.9-2.8l4.8,0L44,50.7L44,50.7z M49.6,30.2l1.5,4.5l4.8,0L52,37.6
		l1.4,4.6l-3.9-2.8l-3.9,2.8l1.4-4.6l-3.9-2.8l4.8,0L49.6,30.2L49.6,30.2z M64.6,15.1l1.5,4.5l4.8,0L67,22.6l1.4,4.6l-3.9-2.8
		l-3.9,2.8l1.4-4.6l-3.9-2.8l4.8,0L64.6,15.1L64.6,15.1z M105.6,15.2l1.5,4.5l4.8,0l-3.9,2.8l1.4,4.6l-3.9-2.8l-3.9,2.8l1.4-4.6
		l-3.9-2.8l4.8,0L105.6,15.2L105.6,15.2z M120.6,30.1l1.5,4.5l4.8,0l-3.9,2.8l1.4,4.6l-3.9-2.8l-3.9,2.8l1.4-4.6l-3.9-2.8l4.8,0
		L120.6,30.1L120.6,30.1z M126.1,50.7l1.5,4.5l4.8,0l-3.9,2.8l1.4,4.6l-3.9-2.8l-3.9,2.8l1.4-4.6l-3.9-2.8l4.8,0L126.1,50.7
		L126.1,50.7z M120.6,71.2l1.5,4.5l4.8,0l-3.9,2.8l1.4,4.6l-3.9-2.8l-3.9,2.8l1.4-4.6l-3.9-2.8l4.8,0L120.6,71.2L120.6,71.2z
		 M105.6,86.2l1.5,4.5l4.8,0l-3.9,2.8l1.4,4.6l-3.9-2.8l-3.9,2.8l1.4-4.6l-3.9-2.8l4.8,0L105.6,86.2L105.6,86.2z M85,91.7l1.5,4.5
		l4.8,0l-3.9,2.8l1.4,4.6L85,101l-3.9,2.8l1.4-4.6l-3.9-2.8l4.8,0L85,91.7L85,91.7z"/>
</g>
</svg>
