<svg xmlns="http://www.w3.org/2000/svg" aria-hidden="true" focusable="false" role="presentation" class="icon icon--wide icon-logo" viewBox="0 0 399.69 76.62"><defs><style>.cls-1,.cls-2{fill:#fff}.cls-1{fill-rule:evenodd}</style></defs><path class="cls-1" d="M317.48 277a15.06 15.06 0 1 1 15 15.06 15.05 15.05 0 0 1-15-15.06zm3.9 0a11.15 11.15 0 1 1 11.15 11.15A11.15 11.15 0 0 1 321.38 277zM358.84 291.6h3.86v-12.42h7.49l7.89 12.42h4.69l-8.06-12.67c5.1-.82 6.78-4.44 6.78-8.18 0-6.66-4.81-8.43-9.41-8.43h-13.24zm3.86-25.91h8.76c3.62 0 6.17 1.2 6.17 5.06s-2.55 5.06-6.17 5.06h-8.76zM312.87 299.57h1.52v6h3.26v1.28h-4.78zm18.13 3.66a3.86 3.86 0 1 1-3.86-3.85 3.72 3.72 0 0 1 3.86 3.85zm-6.13 0a2.29 2.29 0 1 0 2.27-2.57 2.3 2.3 0 0 0-2.32 2.57zm11.86-3.66h1.39l3.38 5.21v-5.21h1.38v7.32h-1.39l-3.38-5.22v5.22h-1.38zm12.95 0h2.83c2.78 0 4 1.56 4 3.66 0 2.38-1.28 3.66-3.68 3.66h-3.11zm1.52 6h1.38c1.49 0 2.3-.49 2.3-2.38a2.11 2.11 0 0 0-2.34-2.39h-1.34zm18.36-2.38a3.86 3.86 0 1 1-3.86-3.85 3.72 3.72 0 0 1 3.81 3.89zm-6.13 0a2.29 2.29 0 1 0 2.27-2.57 2.3 2.3 0 0 0-2.32 2.61zm11.18-3.66H376l3.38 5.21v-5.21h1.38v7.32h-1.4l-3.36-5.18v5.22h-1.38z" transform="translate(-147.08 -261.58)"/><path class="cls-1" d="M111.97 30.02h3.86V16.2h14.37v-3.37h-14.37V4.11h14.89V.74h-18.75v29.28z"/><path class="cls-1" d="M434.3 270.71c-.82-6.37-5.76-9.13-11.8-9.13-5.06 0-10.49 2.67-10.49 8.35 0 10.85 18.59 5.38 18.59 13.44 0 4.16-3.54 5.84-7.24 5.84-5.05 0-8.39-2.18-8.59-7.48l-4.19.37c.49 7.48 6 10.24 12.95 10.24 5.55 0 11.26-2.88 11.26-9.09 0-12.21-18.58-6.41-18.58-14.14 0-3.46 3.78-4.4 6.54-4.4 4.07 0 7.36 1.89 7.56 6.2z" transform="translate(-147.08 -261.58)"/><path class="cls-2" d="M247.81.74h3.87v29.28h-3.87z"/><path class="cls-1" d="M143.13 30.02h19.72v-3.38H147V.74h-3.87v29.28z"/><path class="cls-2" d="M147.08 326.6c0-.08 0-.12.1-.12h2.9a4.87 4.87 0 0 1 2 .28 1.46 1.46 0 0 1 .84 1.41c0 1-.48 1.29-1.51 1.66 1.25.38 2 1 2 2.08a1.78 1.78 0 0 1-.85 1.56 5.21 5.21 0 0 1-2.3.39c-.56 0-1.09-.05-1.64-.05s-1 .05-1.3.05c-.12 0-.13-.05-.13-.16v-.34c0-.07 0-.08.11-.08h.44a.48.48 0 0 0 .44-.41v-3.54-1.72c0-.55-.34-.57-.65-.57h-.31c-.08 0-.08 0-.08-.11zm2.29 3.07a3 3 0 0 0 1.66-.23 1.35 1.35 0 0 0 .6-1.07 1.24 1.24 0 0 0-.49-1.06 2.53 2.53 0 0 0-1.25-.35h-.36c-.1 0-.13.1-.15.21s0 1.11 0 1.79zm0 2.5c0 .78.23 1.24 1 1.24a1.46 1.46 0 0 0 1.56-1.52 1.52 1.52 0 0 0-1.06-1.54 4.36 4.36 0 0 0-1.54-.18zM160.25 327.57c0-.32-.16-.5-.62-.5h-.16c-.05 0-.06-.05-.06-.11v-.39a.08.08 0 0 1 .09-.09h3.2a3.24 3.24 0 0 1 2.12.64 1.78 1.78 0 0 1 .56 1.18c0 1.12-.63 1.78-1.91 2.23.37.08.7.59 1.36 1.53a5.35 5.35 0 0 0 .91 1 1.14 1.14 0 0 0 .73.18c.07 0 .08.05.08.14v.33c0 .06 0 .11-.09.11h-1.83a10.33 10.33 0 0 1-1.17-1.79c-.59-1-.83-1.37-1.51-1.37a1.33 1.33 0 0 0-.42 0v2.14a.41.41 0 0 0 .45.41h.42c.07 0 .1 0 .1.08v.39c0 .08 0 .11-.13.11s-1-.05-1.53-.05-1.23.05-1.35.05-.09-.05-.09-.13v-.37c0-.05 0-.08.09-.08h.2c.39 0 .58-.07.58-.42v-2.75zm1.24 2.63a2.68 2.68 0 0 0 .48 0c1.81 0 2.08-1.27 2.08-1.69a1.37 1.37 0 0 0-.53-1.12A2.7 2.7 0 0 0 162 327c-.24 0-.48.07-.48.36zM174.2 330.5v2.21c0 .21.23.6.7.6h.24c.08 0 .1 0 .1.08v.39c0 .06 0 .11-.1.11s-1-.05-1.7-.05c-.56 0-1.5.05-1.6.05s-.09-.05-.09-.13v-.35a.09.09 0 0 1 .09-.1h.36c.41 0 .67 0 .7-.31s0-2.21 0-2.76v-.72-2.11c0-.23-.15-.34-.83-.34h-.29c-.08 0-.1-.05-.1-.11v-.38a.09.09 0 0 1 .1-.1c.1 0 1.1.07 1.87 0h1.43a.08.08 0 0 1 .09.09v.43c0 .06 0 .11-.09.11h-.28c-.44 0-.59.06-.6.41v2.21zM184 327.1a9.54 9.54 0 0 0-2 .15 3.71 3.71 0 0 0-1 1.25c0 .06-.08.11-.15.08l-.29-.11c-.08 0-.08-.1-.07-.17.12-.35.51-1.67.57-2 0-.11.08-.16.15-.16a.18.18 0 0 1 .13.05l.13.09a1 1 0 0 0 .63.18c.57 0 1.19.07 2.13.07h.65c.65 0 1.62 0 2.29-.07a1.08 1.08 0 0 0 .59-.15l.19-.12a.21.21 0 0 1 .13-.05c.06 0 .1.05.15.35s.3 1.4.39 1.84c0 .06 0 .1-.09.13l-.27.08c-.1 0-.15 0-.18-.06a4.38 4.38 0 0 0-.81-1.26 11 11 0 0 0-2.07-.16v5.79c0 .14.11.42.37.42h.62c.08 0 .12.05.12.14v.34a.11.11 0 0 1-.12.1c-.11 0-1.12-.05-1.66-.05s-1.51.05-1.64.05-.13-.05-.13-.14v-.33c0-.08 0-.11.1-.11h.65a.34.34 0 0 0 .38-.26v-2.46zM196.44 330.5v2.21a.61.61 0 0 0 .7.6h.25c.08 0 .09 0 .09.08v.39c0 .06 0 .11-.09.11s-1-.05-1.71-.05c-.55 0-1.49.05-1.59.05s-.1-.05-.1-.13v-.35a.09.09 0 0 1 .1-.1h.36c.4 0 .66 0 .69-.31s0-2.21 0-2.76v-.72-2.11c0-.23-.14-.34-.82-.34H194c-.08 0-.09-.05-.09-.11v-.38c0-.06 0-.1.09-.1s1.11.07 1.87 0h1.43a.09.09 0 0 1 .1.09v.43c0 .06 0 .11-.1.11h-.28c-.43 0-.58.06-.6.41v2.21zM204.17 333.47c-.12-.08-.21-.1-.25 0v.13c0 .08-.12.12-.25.08s-.14-.09-.13-.17c.05-.46.16-1.76.18-2 0-.06 0-.11.11-.11h.3c.06 0 .13.05.13.11a2.08 2.08 0 0 0 .29 1.11 1.52 1.52 0 0 0 1.38.81c.52 0 1.3-.41 1.3-1.1 0-.93-.63-1.34-1.49-1.66a5.24 5.24 0 0 1-1.6-.85 2.16 2.16 0 0 1-.57-1.67 1.91 1.91 0 0 1 .7-1.36 2.34 2.34 0 0 1 1.53-.49 2.46 2.46 0 0 1 1.15.21c.17.1.25.11.28 0l.06-.11c0-.05.09-.05.22-.05s.14.06.14.15c0 .53.15 1.59.16 1.82 0 0 0 .08-.06.09l-.29.07s-.08 0-.1-.07a4.25 4.25 0 0 0-.57-1.15 1.35 1.35 0 0 0-1.07-.44 1.07 1.07 0 0 0-1.15 1 1.32 1.32 0 0 0 .26.8 2.78 2.78 0 0 0 1.13.66 4.67 4.67 0 0 1 1.76.88 2 2 0 0 1 .52 1.56 2.14 2.14 0 0 1-2.26 2.26 2.79 2.79 0 0 1-1.81-.51zM221.66 330.08v2.43c0 .64.11.8.45.8h.47c.07 0 .09.05.09.11v.36c0 .08 0 .11-.13.11s-1-.05-1.5-.05c-.34 0-1.32.05-1.57.05s-.15-.05-.15-.11v-.37c0-.07 0-.1.11-.1h.64c.24 0 .29-.2.29-.57V330.42c0-.12-.06-.13-.24-.13h-3.62c-.14 0-.17 0-.17.09v2.33c0 .5.13.6.36.6h.48c.07 0 .1 0 .1.11v.36a.1.1 0 0 1-.1.11c-.19 0-1.1-.05-1.46-.05l-1.59.05c-.08 0-.11 0-.11-.11v-.37c0-.09 0-.1.11-.1h.5c.38 0 .39-.26.41-.6s0-2.23 0-2.49v-.45-2.08c0-.47-.18-.62-.47-.62h-.44c-.1 0-.13 0-.13-.11v-.34c0-.1 0-.14.13-.14H217.22c.18 0 .13 0 .13.14v.38c0 .08 0 .11-.13.11h-.45a.4.4 0 0 0-.44.42v2.13c0 .09 0 .13.13.13h3.67c.17 0 .23 0 .23-.16v-.15-1.83c0-.34-.16-.52-.37-.52h-.48c-.08 0-.11 0-.11-.1v-.37c0-.08 0-.12.11-.12H222.44c.13 0 .14 0 .14.17v.29c0 .06 0 .11-.14.11H222a.34.34 0 0 0-.36.39v2.26zM239.11 333c0 .28.17.33.43.33h.39s.08 0 .08.1v.35c0 .07 0 .13-.08.13s-.94-.05-1.59-.05c-.5 0-1.31.05-1.38.05s-.1-.05-.1-.13v-.35a.1.1 0 0 1 .1-.1h.46c.27 0 .37-.13.39-.26s0-1.32 0-3.09v-.73-1.71c0-.13-.13-.45-.44-.45h-.63c-.06 0-.08-.05-.08-.11v-.36c0-.07 0-.12.1-.12h5.71c.05.35.36 1.74.41 2v.13l-.26.11s-.08 0-.13-.09a8 8 0 0 0-.71-1.11.93.93 0 0 0-.62-.36c-.27-.06-1.83-.08-2-.08v3.07c.14 0 1.08 0 1.21-.06a.93.93 0 0 0 .57-.8c0-.11 0-.14.1-.14h.32c.05 0 .07 0 .07.08v2.19c0 .14 0 .09-.08.09h-.31a.1.1 0 0 1-.1-.1.73.73 0 0 0-.56-.73 5.85 5.85 0 0 0-1.25-.12zM249.43 331l-.64 1.74c-.1.33 0 .54.29.54h.4c.1 0 .12.05.12.11v.36c0 .06 0 .11-.1.11s-1-.05-1.25-.05-1.12.05-1.27.05-.06-.08-.06-.14v-.34c0-.07 0-.1.06-.1h.23a.86.86 0 0 0 .67-.34c.11-.13.94-2.08 1.33-2.89.11-.23 1.07-2.44 1.17-2.72 0-.1.13-.27 0-.32s-.08-.12-.06-.17 0-.08.16-.11a2.43 2.43 0 0 0 .91-.47.22.22 0 0 1 .2-.11c.09 0 .13.06.16.17.23.65 1.05 3 1.27 3.63.24.81.94 2.73 1.05 2.89a1 1 0 0 0 .77.44h.3c.07 0 .08.05.08.1v.34s0 .14-.11.14-1.06-.05-1.43-.05-1.27.05-1.48.05a.12.12 0 0 1-.13-.14v-.34c0-.05 0-.1.08-.1h.26a.25.25 0 0 0 .26-.28c-.06-.32-.5-1.62-.63-2zm2.46-.52l-.86-2.79c0-.1-.05-.16-.1-.16s-.08.05-.13.18-1 2.61-1.12 2.77zM260.45 326.57a.08.08 0 0 1 .08-.09h2.46a.28.28 0 0 1 .28.18l2.34 5.32c.13-.31.93-1.94 1.22-2.56s1.26-2.55 1.3-2.72.09-.17.26-.17h2.16c.16 0 .08 0 .08.14v.33a.1.1 0 0 1-.11.11h-.39c-.23 0-.3.18-.31.34s0 2.6 0 2.83v2.5c0 .31.09.57.35.57h.54a.07.07 0 0 1 .08.08v.39a.1.1 0 0 1-.11.11c-.13 0-1-.05-1.61-.05-.41 0-1.41.05-1.53.05s-.09-.05-.09-.16v-.32c0-.07 0-.1.09-.1h.46c.33 0 .44-.18.44-.33v-5.82c-.08.17-1.38 2.93-1.66 3.46s-1.33 2.75-1.38 2.85-.13.24-.26.24-.14-.08-.19-.18-1.46-3.35-1.58-3.59c-.22-.49-1-2.37-1.23-2.76 0 .16-.05 2.73-.05 2.84v2.52c.07.59.3.75.78.75h.25c.06 0 .08.05.08.13v.35a.09.09 0 0 1-.1.1c-.1 0-.86-.05-1.36-.05s-1.29.05-1.39.05-.09 0-.09-.16v-.32c0-.07 0-.1.08-.1h.21c.47 0 .73-.21.78-.46a34.3 34.3 0 0 0 .18-3.57v-1.84c0-.15 0-.37-.68-.37h-.29a.07.07 0 0 1-.08-.08zM278.88 330.5v2.21c0 .21.23.6.7.6h.24c.08 0 .1 0 .1.08v.39c0 .06 0 .11-.1.11s-1-.05-1.71-.05c-.55 0-1.49.05-1.59.05s-.09-.05-.09-.13v-.35a.09.09 0 0 1 .09-.1h.36c.41 0 .67 0 .7-.31s0-2.21 0-2.76v-.72-2.11c0-.23-.15-.34-.83-.34h-.29c-.08 0-.1-.05-.1-.11v-.38a.09.09 0 0 1 .1-.1c.1 0 1.1.07 1.87 0h1.43a.08.08 0 0 1 .09.09v.43c0 .06 0 .11-.09.11h-.28c-.44 0-.59.06-.6.41v2.21zM286.87 329.21v-1.77c0-.12-.08-.37-.66-.37h-.25c-.06 0-.08-.05-.08-.11v-.39a.08.08 0 0 1 .08-.09h3.14c.12 0 .08 0 .08.1v.42a.09.09 0 0 1-.1.1h-.24c-.6 0-.65.1-.65.36v5.84h2.42a6.53 6.53 0 0 0 1.3-1.57c.05-.07.08-.1.14-.08l.26.11v.16l-.5 2h-5.93c-.07 0-.1 0-.1-.14v-.34c0-.09.05-.1.11-.1h.51c.29 0 .43-.15.45-.29s0-2.6 0-3.22zM300.57 331.91v1c0 .16.29.36.58.36h.21c.09 0 .12 0 .12.08v.39c0 .06 0 .11-.13.11s-1-.05-1.55-.05c-.35 0-1.29.05-1.39.05s-.12 0-.12-.13v-.35a.1.1 0 0 1 .1-.1h.25c.51 0 .61-.1.63-.33s0-.73 0-1.69v-.58c-.14-.29-2.12-3.2-2.38-3.45a.91.91 0 0 0-.59-.19h-.23c-.08 0-.11 0-.11-.13v-.36c0-.05 0-.1.13-.1H299a.11.11 0 0 1 .11.12v.44c0 .06 0 .11-.11.11h-.24c-.3 0-.31.18-.25.28s1.45 2.3 1.71 2.69c.24-.4 1.59-2.37 1.65-2.5s.15-.47-.21-.47h-.26a.1.1 0 0 1-.11-.11v-.36c0-.07 0-.12.11-.12h2.4c.14 0 .11 0 .11.14v.34c0 .08 0 .11-.1.11h-.16a1.13 1.13 0 0 0-.58.13 34.71 34.71 0 0 0-2.5 3.35zM318 329v-1.76c0-.16-.13-.21-.71-.21h-.23a.09.09 0 0 1-.1-.1v-.4a.09.09 0 0 1 .1-.09h2.75a4.23 4.23 0 0 1 2.56.52 1.86 1.86 0 0 1 .83 1.52c0 1.38-1 2.22-2.84 2.22a7.2 7.2 0 0 1-1.09-.06v2.3c0 .14.16.33.48.33h.47a.09.09 0 0 1 .1.1v.38a.1.1 0 0 1-.11.1c-.13 0-1.07-.05-1.61-.05s-1.36.05-1.48.05-.1-.05-.1-.14v-.34a.09.09 0 0 1 .1-.1h.42c.31 0 .41-.05.43-.33s0-1.54 0-2.76zm1.23 1.12a2.56 2.56 0 0 0 .84.09 1.76 1.76 0 0 0 1.52-.86 1.64 1.64 0 0 0 .17-.86c0-1.15-1.31-1.56-1.83-1.56a2.28 2.28 0 0 0-.7.07zM331 329.8c.1 0 1.06-.05 1.19-.08.42-.12.58-.34.58-.85 0-.06 0-.08.08-.08h.36c.07 0 .11 0 .1.1s0 1 0 1.15c0 .36 0 .86.06 1.07s0 .08-.08.08h-.34c-.05 0-.08 0-.1-.06-.08-.41-.18-.67-.6-.76a5.52 5.52 0 0 0-1.22-.12V332.53c0 .76.47.81 1.17.81a2.34 2.34 0 0 0 1.72-.46 7 7 0 0 0 .86-1.08c.09-.12.17-.13.22-.1l.26.14a.12.12 0 0 1 0 .12l-.59 1.72c0 .08-.11.16-.18.16H328.68c-.08 0-.09-.05-.09-.11v-.37c0-.07 0-.1.11-.1h.15c.76 0 .81-.07.81-.29v-3.46-2.08c-.05-.35-.15-.41-.8-.41h-.16c-.05 0-.07 0-.07-.11v-.39a.08.08 0 0 1 .08-.09h5.46c.06 0 .07 0 .1.23s.49 1.55.52 1.66 0 .1 0 .11l-.26.12s-.09 0-.14-.07-.81-1-1.09-1.22a1 1 0 0 0-.62-.24L331 327zM341.72 327.57c0-.32-.16-.5-.61-.5h-.17c-.05 0-.06-.05-.06-.11v-.39a.09.09 0 0 1 .1-.09h3.2a3.23 3.23 0 0 1 2.11.64 1.75 1.75 0 0 1 .57 1.18c0 1.12-.64 1.78-1.92 2.23.37.08.7.59 1.36 1.53a5.35 5.35 0 0 0 .91 1 1.14 1.14 0 0 0 .73.18c.07 0 .09.05.09.14v.33a.1.1 0 0 1-.1.11h-1.83a11 11 0 0 1-1.17-1.79c-.59-1-.83-1.37-1.51-1.37a1.33 1.33 0 0 0-.42 0v2.14a.41.41 0 0 0 .45.41h.42c.07 0 .1 0 .1.08v.39c0 .08 0 .11-.13.11s-1-.05-1.53-.05-1.23.05-1.34.05-.1-.05-.1-.13v-.37c0-.05 0-.08.1-.08h.19c.39 0 .59-.07.59-.42v-2.75zm1.28 2.63a2.68 2.68 0 0 0 .48 0c1.81 0 2.08-1.27 2.08-1.69a1.37 1.37 0 0 0-.53-1.12 2.7 2.7 0 0 0-1.55-.43c-.24 0-.48.07-.48.36zM355.69 333c0 .28.18.33.44.33h.39c.05 0 .08 0 .08.1v.35c0 .07 0 .13-.08.13s-.94-.05-1.59-.05-1.32.05-1.38.05-.1-.05-.1-.13v-.35a.09.09 0 0 1 .1-.1h.45c.28 0 .37-.13.39-.26s0-1.32 0-3.09v-.73-1.71c0-.13-.13-.45-.44-.45h-.64c-.06 0-.08-.05-.08-.11v-.36c0-.07 0-.12.1-.12h5.72c.05.35.36 1.74.41 2v.13l-.26.11s-.08 0-.13-.09a8.34 8.34 0 0 0-.72-1.11.93.93 0 0 0-.61-.36c-.28-.06-1.84-.08-2.05-.08v3.07c.15 0 1.09 0 1.22-.06.31-.07.5-.44.57-.8 0-.11 0-.14.1-.14h.32c.05 0 .06 0 .06.08v1.19c0 .35 0 .86.05 1a.08.08 0 0 1-.08.09h-.31a.1.1 0 0 1-.1-.1.73.73 0 0 0-.57-.73 5.8 5.8 0 0 0-1.25-.12zM365.48 327.59c0-.29-.06-.52-.55-.52h-.29c-.07 0-.1 0-.1-.1v-.4a.09.09 0 0 1 .1-.09h3.09c.1 0 .11 0 .11.1v.42a.09.09 0 0 1-.1.1h-.23c-.52 0-.69.16-.71.29s0 .77 0 1.37v2.73a2.27 2.27 0 0 0 .37 1.29 2 2 0 0 0 1.51.7 2.3 2.3 0 0 0 1.48-.53 2.19 2.19 0 0 0 .53-1.69V329a12.38 12.38 0 0 0-.06-1.48c0-.28-.2-.44-.7-.44h-.18c-.06 0-.1-.05-.1-.13v-.36a.1.1 0 0 1 .1-.1H372.35a.11.11 0 0 1 .12.12v.39a.1.1 0 0 1-.1.11h-.15c-.57 0-.62.26-.66.44s0 1.36 0 1.56 0 1.95-.05 2.35a2.61 2.61 0 0 1-.89 2 3.11 3.11 0 0 1-2.16.62 4.45 4.45 0 0 1-1.51-.21 1.92 1.92 0 0 1-1.28-1.38 11.37 11.37 0 0 1-.17-2.57zM378 326.57a.08.08 0 0 1 .08-.09h2.46a.29.29 0 0 1 .28.18l2.34 5.32c.13-.31.93-1.94 1.22-2.56s1.26-2.55 1.3-2.72.09-.17.26-.17h2.16c.16 0 .08 0 .08.14v.33a.1.1 0 0 1-.11.11h-.4c-.22 0-.29.18-.3.34s0 2.6 0 2.83v2.5c0 .31.09.57.35.57h.54a.07.07 0 0 1 .08.08v.39a.1.1 0 0 1-.11.11c-.13 0-1-.05-1.61-.05-.41 0-1.41.05-1.53.05s-.09-.05-.09-.16v-.32c0-.07 0-.1.09-.1h.52c.33 0 .44-.18.44-.33v-5.82c-.08.17-1.38 2.93-1.66 3.46s-1.33 2.75-1.38 2.85-.13.24-.26.24-.14-.08-.19-.18-1.48-3.37-1.56-3.57c-.23-.49-1-2.37-1.23-2.76V332.6c.07.59.29.75.78.75h.25c.06 0 .08.05.08.13v.35a.09.09 0 0 1-.1.1c-.1 0-.86-.05-1.36-.05s-1.29.05-1.39.05-.09 0-.09-.16v-.32c0-.07 0-.1.08-.1h.21c.47 0 .73-.21.78-.46a34.3 34.3 0 0 0 .18-3.57v-1.84c0-.15 0-.37-.68-.37h-.29a.07.07 0 0 1-.22-.11zM396.44 329.8c.1 0 1.06-.05 1.19-.08.42-.12.58-.34.58-.85 0-.06 0-.08.08-.08h.36c.07 0 .11 0 .1.1s0 1 0 1.15c0 .36 0 .86.06 1.07s0 .08-.08.08h-.34c-.05 0-.08 0-.1-.06-.08-.41-.18-.67-.6-.76a5.52 5.52 0 0 0-1.22-.12V332.53c0 .76.48.81 1.17.81a2.34 2.34 0 0 0 1.72-.46 7.66 7.66 0 0 0 .87-1.08c.08-.12.16-.13.21-.1l.26.14a.12.12 0 0 1 .05.12l-.59 1.72c0 .08-.11.16-.18.16H394.18c-.09 0-.1-.05-.1-.11v-.37c0-.07 0-.1.11-.1h.15c.76 0 .81-.07.81-.29v-3.46-2.08c-.05-.35-.15-.41-.8-.41h-.16c-.05 0-.07 0-.07-.11v-.39a.08.08 0 0 1 .09-.09h5.45c.06 0 .07 0 .1.23s.49 1.55.52 1.66 0 .1 0 .11l-.25.12a.13.13 0 0 1-.15-.07s-.81-1-1.09-1.22a.94.94 0 0 0-.62-.24h-1.72zM407.19 327.57c0-.32-.16-.5-.61-.5h-.17s-.06-.05-.06-.11v-.39a.09.09 0 0 1 .1-.09h3.2a3.23 3.23 0 0 1 2.11.64 1.75 1.75 0 0 1 .57 1.18c0 1.12-.64 1.78-1.92 2.23.37.08.7.59 1.36 1.53a5.71 5.71 0 0 0 .91 1 1.16 1.16 0 0 0 .74.18c.06 0 .08.05.08.14v.33a.1.1 0 0 1-.1.11h-1.83a11 11 0 0 1-1.17-1.79c-.58-1-.83-1.37-1.51-1.37a1.33 1.33 0 0 0-.42 0v2.14a.41.41 0 0 0 .45.41h.43c.06 0 .09 0 .09.08v.39c0 .08 0 .11-.13.11s-1-.05-1.52-.05-1.24.05-1.35.05-.1-.05-.1-.13v-.37c0-.05 0-.08.1-.08h.19c.39 0 .59-.07.59-.42v-2.75zm1.24 2.63a2.68 2.68 0 0 0 .48 0c1.81 0 2.08-1.27 2.08-1.69a1.37 1.37 0 0 0-.53-1.12 2.68 2.68 0 0 0-1.55-.43c-.24 0-.48.07-.48.36zM419.47 333.47c-.11-.08-.21-.1-.24 0l-.05.13c0 .08-.11.12-.24.08s-.15-.09-.13-.17c.05-.46.16-1.76.18-2 0-.06 0-.11.11-.11h.29c.07 0 .13.05.13.11a2.08 2.08 0 0 0 .29 1.11 1.53 1.53 0 0 0 1.38.81c.53 0 1.3-.41 1.3-1.1 0-.93-.63-1.34-1.49-1.66a5.32 5.32 0 0 1-1.59-.85 2.12 2.12 0 0 1-.57-1.67 1.88 1.88 0 0 1 .7-1.36 2.3 2.3 0 0 1 1.52-.49 2.54 2.54 0 0 1 1.16.21c.16.1.24.11.27 0l.07-.11c0-.05.08-.05.21-.05s.15.06.15.15c0 .53.14 1.59.16 1.82a.09.09 0 0 1-.07.09l-.29.07c-.05 0-.08 0-.1-.07a3.89 3.89 0 0 0-.56-1.15 1.38 1.38 0 0 0-1.08-.44 1.07 1.07 0 0 0-1.15 1 1.32 1.32 0 0 0 .26.8 2.82 2.82 0 0 0 1.14.66 4.62 4.62 0 0 1 1.75.88 2 2 0 0 1 .52 1.56 2.14 2.14 0 0 1-2.26 2.26 2.81 2.81 0 0 1-1.77-.51zM438.36 333.47c-.11-.08-.21-.1-.24 0l-.05.13c0 .08-.11.12-.24.08s-.15-.09-.13-.17c.05-.46.16-1.76.18-2 0-.06 0-.11.11-.11h.29c.07 0 .13.05.13.11a2.08 2.08 0 0 0 .29 1.11 1.53 1.53 0 0 0 1.38.81c.52 0 1.3-.41 1.3-1.1 0-.93-.63-1.34-1.49-1.66a5.2 5.2 0 0 1-1.59-.85 2.12 2.12 0 0 1-.57-1.67 1.88 1.88 0 0 1 .7-1.36 2.3 2.3 0 0 1 1.52-.49 2.54 2.54 0 0 1 1.16.21c.16.1.24.11.27 0l.07-.11c0-.05.08-.05.21-.05s.15.06.15.15c0 .53.14 1.59.16 1.82a.09.09 0 0 1-.07.09l-.29.07c-.05 0-.08 0-.1-.07a3.89 3.89 0 0 0-.56-1.15 1.38 1.38 0 0 0-1.08-.44 1.07 1.07 0 0 0-1.15 1 1.32 1.32 0 0 0 .26.8 2.82 2.82 0 0 0 1.14.66 4.62 4.62 0 0 1 1.75.88 2 2 0 0 1 .52 1.56 2.14 2.14 0 0 1-2.26 2.26 2.81 2.81 0 0 1-1.77-.51zM450.58 330.5v2.21c0 .21.23.6.7.6h.24c.09 0 .1 0 .1.08v.39c0 .06 0 .11-.1.11s-1-.05-1.7-.05c-.55 0-1.49.05-1.59.05s-.1-.05-.1-.13v-.35a.09.09 0 0 1 .1-.1h.35c.41 0 .67 0 .7-.31s0-2.21 0-2.76v-.72-2.11c0-.23-.14-.34-.83-.34h-.29c-.08 0-.09-.05-.09-.11v-.38c0-.06 0-.1.09-.1s1.11.07 1.87 0h1.43a.09.09 0 0 1 .1.09v.43c0 .06 0 .11-.1.11h-.28c-.43 0-.58.06-.6.41v2.21zM464.63 333.65c0 .14-.05.31-.25.31a.71.71 0 0 1-.37-.17c-.11-.11-.67-.77-1.33-1.57l-1.63-1.93c-.39-.46-1.7-2.21-2-2.51V330c0 1 .07 2.6.1 2.74.05.38.23.56.39.56h.34c.08 0 .08 0 .08.1v.38c0 .07 0 .1-.08.1s-.76-.05-1.23-.05c-.23 0-1 .05-1.09.05s-.05 0-.05-.11v-.42s0-.05.07-.05h.42a.51.51 0 0 0 .47-.49c0-.19.05-1.35.05-3.18v-1.71a.81.81 0 0 0-.86-.86h-.15a.09.09 0 0 1-.1-.1v-.39a.1.1 0 0 1 .1-.1h1.87c.23 0 .33 0 .39.13s1.92 2.42 2.26 2.83 1.8 2.24 2 2.45H464v-1.07c0-.93 0-1.43-.05-1.95a8.16 8.16 0 0 0-.13-1.53.62.62 0 0 0-.6-.29H463c-.09 0-.12 0-.12-.11v-.39c0-.05 0-.09.12-.09h2.33c.09 0 .12 0 .12.14v.41a.1.1 0 0 1-.1.11h-.16c-.41 0-.49.11-.52.34a22.48 22.48 0 0 0-.05 2.44zM472 333.11a4.23 4.23 0 0 1-.07-5.72 3.58 3.58 0 0 1 2.6-1.05 4.14 4.14 0 0 1 2 .47c.15.08.26.08.28 0l.05-.18c0-.05.06-.08.21-.08s.24 0 .24.18.16 1.7.18 2.09v.17l-.39.06c-.06 0-.08 0-.11-.13a3 3 0 0 0-.72-1.27 2.54 2.54 0 0 0-1.7-.76c-1.58 0-2.36 1.59-2.34 2.89a4.13 4.13 0 0 0 1 2.7 2.13 2.13 0 0 0 1.71.75 2.76 2.76 0 0 0 2.45-1.22c.06-.12.11-.13.16-.1l.28.18c.06 0 0 .11 0 .21a3.9 3.9 0 0 1-5.78.81zM485.6 329.8c.09 0 1-.05 1.18-.08.42-.12.59-.34.59-.85 0-.06 0-.08.08-.08h.35c.07 0 .12 0 .1.1s0 1 0 1.15c0 .36.05.86.06 1.07s0 .08-.08.08h-.34c-.05 0-.08 0-.1-.06-.08-.41-.18-.67-.6-.76a5.4 5.4 0 0 0-1.21-.12V332.53c0 .76.47.81 1.17.81a2.35 2.35 0 0 0 1.72-.46 7.67 7.67 0 0 0 .86-1.08c.08-.12.16-.13.21-.1l.26.14a.11.11 0 0 1 0 .12l-.59 1.72c0 .08-.11.16-.17.16H483.28c-.08 0-.1-.05-.1-.11v-.37c0-.07 0-.1.11-.1h.15c.76 0 .81-.07.81-.29v-3.46-2.08c-.05-.35-.15-.41-.79-.41h-.17c-.05 0-.06 0-.06-.11v-.39s0-.09.08-.09h5.46c.07 0 .06 0 .09.23s.49 1.55.53 1.66 0 .1 0 .11l-.26.12a.13.13 0 0 1-.15-.07s-.81-1-1.09-1.22a.93.93 0 0 0-.61-.24h-1.72zM506 329.57v-1.33c0-.44-.19-.63-.76-.63h-.64a.07.07 0 0 1-.08-.07v-.41c0-.06 0-.11.13-.11l2 .05 1.9-.05c.11 0 .14 0 .14.08v.39c0 .08 0 .12-.13.12h-.71c-.42 0-.64.13-.67.66 0 .21-.06.88-.06 1.66v2.71c0 .5.33.7.86.7h.61a.09.09 0 0 1 .09.1v.35c0 .1 0 .13-.11.13l-1.93-.05-2 .05c-.08 0-.12 0-.12-.1v-.38c0-.09 0-.1.13-.1h.44a.77.77 0 0 0 .86-.64 22.1 22.1 0 0 0 .07-2.4zM516.31 337.73a3.76 3.76 0 0 1 .4-1.24c.41-.94 3.51-6.92 4.24-8.3h-3.1a1.77 1.77 0 0 0-1.59.85c-.11.17-.16.19-.33.19s-.24-.16-.14-.31c.24-.44 1.18-2.22 1.22-2.35s.11-.2.16-.2.29 0 .29.11a2.26 2.26 0 0 1-.08.3c-.06.26.16.29.54.29H522c.22 0 .23.11.15.28-.62 1.1-2.09 3.94-2.37 4.56-.13.28-1.9 4.11-2.23 5.1s-.45 1.19-.78 1.19a.41.41 0 0 1-.46-.47zM527.71 336.64a.45.45 0 0 1 .49-.42 1.16 1.16 0 0 1 .7.34 1.19 1.19 0 0 0 .87.31 2.32 2.32 0 0 0 2.21-2.56 2.25 2.25 0 0 0-2.09-2.25.19.19 0 0 1-.18-.2c0-.1.06-.18.21-.21a2.9 2.9 0 0 0 2-2.42 1.43 1.43 0 0 0-1.36-1.36 2 2 0 0 0-1.6 1 .3.3 0 0 1-.27.15c-.15 0-.21-.07-.21-.17a.77.77 0 0 1 .08-.27 2.9 2.9 0 0 1 2.53-1.73 1.79 1.79 0 0 1 1.87 1.69 3.89 3.89 0 0 1-1.54 2.83 2.88 2.88 0 0 1 1.85 2.39 3.73 3.73 0 0 1-3.8 3.67c-.74.02-1.76-.14-1.76-.79zM539.58 330.5a3.55 3.55 0 0 1 3.66-3.63 3.45 3.45 0 0 1 3.52 3.61 3.56 3.56 0 0 1-3.6 3.56 3.51 3.51 0 0 1-3.58-3.54zm6.09-.12a2.65 2.65 0 0 0-2.51-2.68 2.55 2.55 0 0 0-2.49 2.65 2.66 2.66 0 0 0 2.57 2.81 2.5 2.5 0 0 0 2.43-2.78z" transform="translate(-147.08 -261.58)"/></svg>