<?xml version="1.0" encoding="utf-8"?>
<!-- Generator: Adobe Illustrator 22.1.0, SVG Export Plug-In . SVG Version: 6.00 Build 0)  -->
<svg version="1.1" id="Layer_1" xmlns="http://www.w3.org/2000/svg" xmlns:xlink="http://www.w3.org/1999/xlink" x="0px" y="0px"
	 viewBox="0 0 2277.2 576.1" style="enable-background:new 0 0 2277.2 576.1;" xml:space="preserve">
<style type="text/css">
	.st0{clip-path:url(#SVGID_2_);}
	.st1{fill:#000000;}
	.st2{fill:#000000;}
	.st3{fill:#000000;}
	.st4{fill:#000000;}
</style>
<g transform="matrix(2.07675 0 0 -2.07675 -11.153 92.77)">
	<g>
		<g>
			<defs>
				<rect id="SVGID_1_" x="-4829.7" y="-1845.7" width="10780.8" height="3502"/>
			</defs>
			<clipPath id="SVGID_2_">
				<use xlink:href="#SVGID_1_"  style="overflow:visible;"/>
			</clipPath>
			<g class="st0">
				<path class="st1" d="M207.4,24.1c-12.8,14.6-36,20.9-65.7,20.9H55.6c-6.1,0-11.2-4.4-12.2-10.4L7.5-192.9
					c-0.6-4,2.1-7.8,6.2-8.5c0.4-0.1,0.8-0.1,1.2-0.1H68l13.4,84.7l-0.4-2.7c0.9,6,6.1,10.4,12.1,10.4h25.3
					c49.6,0,88.5,20.2,99.9,78.5c0.3,1.7,0.6,3.4,0.9,5C222.5-3.9,219.1,10.8,207.4,24.1"/>
				<path class="st2" d="M858.4-84.1c-3.3-21.3-19.5-21.3-35.3-21.3h-9l6.3,39.9c0.4,2.4,2.5,4.2,4.9,4.2h4.1
					c10.7,0,20.9,0,26.1-6.1C858.6-71.2,859.6-76.6,858.4-84.1 M851.5-28.4H792c-4.1,0-7.5-3-8.2-7l-24-152.5
					c-0.4-2.7,1.4-5.2,4.1-5.7c0.3,0,0.5-0.1,0.8-0.1h30.5c2.8,0,5.3,2.1,5.7,4.9l6.8,43.2c0.6,4,4.1,7,8.2,7h18.8
					c39.2,0,61.8,18.9,67.7,56.5c2.7,16.4,0.1,29.3-7.6,38.4C886.4-33.7,871.4-28.4,851.5-28.4"/>
				<path class="st2" d="M434.3-84.1c-3.3-21.3-19.5-21.3-35.3-21.3h-9l6.3,39.9c0.4,2.4,2.5,4.2,4.9,4.2h4.1
					c10.7,0,20.9,0,26.1-6.1C434.5-71.2,435.5-76.6,434.3-84.1 M427.4-28.4H368c-4.1,0-7.5-3-8.2-7l-24-152.5
					c-0.4-2.7,1.4-5.2,4.1-5.7c0.3,0,0.5-0.1,0.8-0.1h28.4c4.1,0,7.5,3,8.2,7l6.5,41.1c0.6,4,4.1,7,8.2,7h18.8
					c39.2,0,61.8,19,67.7,56.5c2.7,16.4,0.1,29.3-7.6,38.4C462.3-33.7,447.3-28.4,427.4-28.4 M565.5-138.9
					c-2.8-16.3-15.7-27.2-32.1-27.2c-8.3,0-14.9,2.7-19.1,7.7c-4.2,5-5.8,12.1-4.5,20c2.6,16.1,15.7,27.4,31.9,27.4
					c8.1,0,14.6-2.7,19-7.8C565-123.9,566.7-131,565.5-138.9 M605.2-83.4h-28.5c-2.4,0-4.5-1.8-4.9-4.2l-1.2-8l-2,2.9
					c-6.2,8.9-19.9,11.9-33.6,11.9c-31.5,0-58.3-23.8-63.6-57.3c-2.7-16.7,1.1-32.6,10.6-43.8c8.7-10.2,21.1-14.5,35.9-14.5
					c25.4,0,39.4,16.3,39.4,16.3L556-188c-0.4-2.7,1.4-5.2,4.1-5.7c0.3,0,0.5-0.1,0.8-0.1h25.6c4.1,0,7.5,3,8.2,7l15.4,97.5
					c0.4,2.7-1.4,5.2-4.1,5.7C605.7-83.5,605.4-83.5,605.2-83.4"/>
				<path class="st2" d="M989.6-138.9c-2.8-16.3-15.7-27.2-32.1-27.2c-8.3,0-14.9,2.7-19.1,7.7c-4.2,5-5.8,12.1-4.5,20
					c2.6,16.1,15.7,27.4,31.9,27.4c8.1,0,14.6-2.7,19-7.8C989.1-123.9,990.8-131,989.6-138.9 M1029.3-83.4h-28.5
					c-2.4,0-4.5-1.8-4.9-4.2l-1.2-8l-2,2.9c-6.2,8.9-19.9,11.9-33.6,11.9c-31.4,0-58.3-23.8-63.6-57.3c-2.7-16.7,1.2-32.6,10.6-43.8
					c8.7-10.2,21.1-14.5,35.9-14.5c25.4,0,39.4,16.3,39.4,16.3l-1.3-7.9c-0.4-2.7,1.4-5.2,4.1-5.7c0.3,0,0.5-0.1,0.8-0.1h25.6
					c4.1,0,7.5,3,8.2,7l15.4,97.5c0.4,2.7-1.4,5.2-4.1,5.7C1029.8-83.5,1029.5-83.5,1029.3-83.4"/>
				<path class="st2" d="M756.8-83.5h-28.6c-2.7,0-5.3-1.4-6.8-3.6l-39.5-58.1l-16.7,55.9c-1,3.5-4.3,5.9-7.9,5.9h-28.1
					c-2.7,0-5-2.2-5-5c0-0.5,0.1-1.1,0.3-1.6l31.5-92.5l-29.6-41.8c-1.6-2.2-1-5.3,1.2-6.9c0.8-0.6,1.8-0.9,2.9-0.9h28.6
					c2.7,0,5.2,1.3,6.8,3.5l95.2,137.4c1.6,2.2,1,5.3-1.2,6.9C758.8-83.8,757.8-83.5,756.8-83.5"/>
				<path class="st2" d="M1062.8-32.6l-24.4-155.3c-0.4-2.7,1.4-5.2,4.1-5.7c0.3,0,0.5-0.1,0.8-0.1h24.5c4.1,0,7.5,3,8.2,7
					l24.1,152.5c0.4,2.7-1.4,5.2-4.1,5.7c-0.3,0-0.5,0.1-0.8,0.1h-27.5C1065.3-28.4,1063.2-30.2,1062.8-32.6"/>
				<path class="st1" d="M207.4,24.1c-12.8,14.6-36,20.9-65.7,20.9H55.6c-6.1,0-11.2-4.4-12.2-10.4L7.5-192.9
					c-0.6-4,2.1-7.8,6.2-8.5c0.4-0.1,0.8-0.1,1.2-0.1H68l13.4,84.7l-0.4-2.7c0.9,6,6.1,10.4,12.1,10.4h25.3
					c49.6,0,88.5,20.2,99.9,78.5c0.3,1.7,0.6,3.4,0.9,5C222.5-3.9,219.1,10.8,207.4,24.1"/>
				<path class="st3" d="M95.7-25.7c0.8,5.2,5.3,9.1,10.6,9.1h67.5c8,0,15.5-0.5,22.3-1.6c3.7-0.6,7.4-1.4,11-2.5
					c4.1-1.2,8.1-2.7,11.9-4.7c3.4,21.6,0,36.2-11.7,49.5c-12.8,14.6-36,20.9-65.7,20.9h-86c-6.1,0-11.2-4.4-12.2-10.4L7.5-192.9
					c-0.6-4,2.1-7.8,6.1-8.5c0.4-0.1,0.8-0.1,1.2-0.1H68l13.4,84.7L95.7-25.7z"/>
				<path class="st2" d="M219.1-25.4c-0.3-1.7-0.6-3.4-0.9-5c-11.4-58.3-50.2-78.5-99.9-78.5H93.1c-6.1,0-11.2-4.4-12.1-10.4
					l-12.9-82l-3.7-23.3c-0.6-3.5,1.8-6.8,5.4-7.4c0.3-0.1,0.7-0.1,1-0.1h44.8c5.3,0,9.8,3.9,10.6,9.1l0.4,2.3l8.4,53.5l0.5,3
					c0.8,5.2,5.3,9.1,10.7,9.1h6.7c43.4,0,77.4,17.6,87.4,68.7c4.1,21.3,2,39.1-9,51.6C227.9-31,223.7-27.8,219.1-25.4"/>
				<path class="st4" d="M207.2-20.7c-1.7,0.5-3.5,1-5.4,1.4c-1.8,0.4-3.7,0.8-5.7,1.1c-6.8,1.1-14.3,1.6-22.3,1.6h-67.5
					c-5.3,0-9.8-3.9-10.6-9.1l-14.4-91l-0.4-2.6c0.9,6,6.1,10.4,12.1,10.4h25.3c49.6,0,88.5,20.2,99.9,78.5c0.3,1.7,0.6,3.4,0.9,5
					c-3,1.6-6.1,2.9-9.3,3.9C208.9-21.2,208.1-20.9,207.2-20.7"/>
			</g>
		</g>
	</g>
</g>
</svg>
